<?xml version="1.0" standalone="no"?>
<!DOCTYPE svg PUBLIC "-//W3C//DTD SVG 1.1//EN" "http://www.w3.org/Graphics/SVG/1.1/DTD/svg11.dtd" >
<svg xmlns="http://www.w3.org/2000/svg">
<metadata></metadata>
<defs>
<font id="RitaSmithRegular" horiz-adv-x="1009" >
<font-face units-per-em="2048" ascent="1638" descent="-410" />
<missing-glyph horiz-adv-x="614" />
<glyph horiz-adv-x="0" />
<glyph horiz-adv-x="2048" />
<glyph unicode=" "  horiz-adv-x="614" />
<glyph unicode="&#x09;" horiz-adv-x="614" />
<glyph unicode="&#xa0;" horiz-adv-x="614" />
<glyph unicode="!" horiz-adv-x="382" d="M37 82q0 68 57 111t131 43q41 0 71 -26t30 -65q0 -66 -56 -107.5t-129 -41.5q-42 0 -73 24t-31 62zM66 1034q0 31 35.5 78.5t78 82t62.5 34.5q28 0 49.5 -19.5t21.5 -50.5q0 -54 -3 -185.5t-19.5 -340t-42.5 -262.5q-18 -41 -51 -41l-2 2q-25 0 -43.5 11.5t-18.5 33.5 q0 23 1 59t1 60q0 121 -34.5 314.5t-34.5 223.5z" />
<glyph unicode="&#x22;" horiz-adv-x="526" d="M61 1128q0 93 68 93t68 -93q0 -8 -1 -21t-1 -17l-29 -336q-6 -49 -37 -49q-29 0 -35 49l-31 336q0 4 -1 17t-1 21zM330 1128q0 93 67 93q66 0 66 -93v-38l-31 -336q-6 -49 -35 -49q-31 0 -37 49l-28 336q0 4 -1 17t-1 21z" />
<glyph unicode="#" horiz-adv-x="1075" d="M31 502q0 37 24 54t62 17h131l67 197h-86q-38 0 -63 17.5t-25 54.5q0 69 84 69h140l43 123q8 22 10 28.5t10.5 24t16.5 23t21.5 12t31.5 6.5q32 0 54.5 -22t22.5 -53q0 -13 -10 -43l-33 -99h189l43 125l4.5 13.5t5 13.5t5 12.5t6 12.5t7 10.5t8 10.5t9.5 7.5t12 6.5 t14 3.5t17 1.5q31 0 52.5 -21t21.5 -52q0 -17 -8 -41l-35 -103h75q86 0 86 -69q0 -36 -23.5 -54t-59.5 -18h-130l-67 -197h82q39 0 64.5 -17t25.5 -54q0 -36 -24.5 -53t-61.5 -17h-135l-51 -151q-19 -57 -34 -73q-21 -22 -55 -22q-32 0 -53.5 21.5t-21.5 52.5q0 11 10 41 l43 131h-188l-52 -149q-7 -22 -12 -35t-15.5 -29.5t-25.5 -24.5t-35 -8q-34 0 -57 22t-23 56q0 8 11 41l43 127h-80q-38 0 -63 16.5t-25 53.5zM412 573h190l68 197h-189z" />
<glyph unicode="$" horiz-adv-x="841" d="M23 168q0 37 32.5 64.5t73.5 27.5q27 0 51.5 -14.5t46 -37t44 -45.5t54 -43.5t68.5 -27.5v418l-61 53q-63 55 -98.5 89.5t-79 86t-64 101t-20.5 100.5q0 78 47.5 138.5t118.5 92t157 39.5v70q0 22 14.5 36.5t36.5 14.5t37 -14.5t15 -36.5v-70q103 -8 176 -52t73 -120 q0 -34 -23.5 -58t-57.5 -24q-10 0 -18.5 1t-17 4t-14.5 5.5t-14 8.5t-12.5 8.5t-12.5 11t-11 11t-12 12.5t-11 12q-29 29 -45 39v-338l8 -6q60 -52 89 -77.5t79 -77.5t74.5 -90t44.5 -90t20 -103q0 -125 -90.5 -211t-224.5 -111v-149q0 -22 -15 -37t-37 -15t-36.5 15 t-14.5 37v141q-90 2 -171.5 25t-140 72t-58.5 114zM295 987q0 -66 98 -164v269q-41 -6 -69.5 -35.5t-28.5 -69.5zM496 98q44 16 72 50.5t28 78.5q0 82 -100 185v-314z" />
<glyph unicode="%" horiz-adv-x="1011" d="M37 1022q0 102 70.5 174t171.5 72q88 0 160.5 -67.5t72.5 -160.5q0 -104 -66 -181t-165 -77q-100 0 -172 70.5t-72 169.5zM127 109q0 15 8 26l651 1018q18 25 43 25q26 0 39 -17t13 -35q0 -14 -9 -26l-651 -1018q-18 -25 -43 -25q-26 0 -38.5 17t-12.5 35zM178 1026 q0 -62 28.5 -110t80.5 -48q80 0 80 176q0 53 -23 95.5t-65 42.5q-50 0 -75.5 -47t-25.5 -109zM496 186q0 102 70 174t171 72q88 0 161 -67.5t73 -159.5q0 -104 -66.5 -181t-165.5 -77q-100 0 -171.5 70t-71.5 169zM637 190q0 -62 28 -109.5t80 -47.5q80 0 80 176 q0 53 -23 95t-65 42q-50 0 -75 -47t-25 -109z" />
<glyph unicode="&#x26;" horiz-adv-x="1234" d="M45 295q0 63 22 121t65 111t83.5 91t101.5 87q-102 174 -102 253q0 111 84.5 187t198.5 76q94 0 164.5 -52.5t70.5 -138.5q0 -94 -49.5 -168.5t-138.5 -148.5q131 -187 260 -334q133 154 133 268q0 15 -8 29t-16 21.5t-23 19.5q-2 1 -7 5.5t-6.5 6.5t-6 6t-6 6l-4.5 6 t-4 7.5t-2 7.5t-1 8q0 19 12 31t31 12h266q19 0 31 -12t12 -31q0 -4 -1 -8t-2 -7.5t-3.5 -7t-4 -6t-5.5 -6t-6 -5t-7 -5t-7 -5t-8 -5t-7 -4.5q-57 -37 -184 -275q-35 -68 -92 -139q42 -48 59.5 -67t48 -39.5t57.5 -20.5q28 0 67.5 25.5t51.5 25.5q13 0 23 -7.5t10 -20.5 q0 -63 -83 -125t-161 -62q-56 0 -106 27t-119 106q-167 -139 -340 -139q-137 0 -239.5 83.5t-102.5 211.5zM279 375q0 -85 64.5 -142t152.5 -57q64 0 151 62q-163 212 -254 348q-114 -105 -114 -211zM387 981q0 -28 80 -152q102 95 102 175q0 39 -26 67.5t-64 28.5 q-42 0 -67 -36t-25 -83z" />
<glyph unicode="'" horiz-adv-x="366" d="M39 760q0 17 18 36.5t39.5 35.5t39.5 41t18 51q0 41 -25 102.5t-25 89.5q0 43 29.5 74t71.5 31q57 0 91 -48t34 -112q0 -79 -41 -162t-99 -134.5t-108 -51.5q-18 0 -30.5 14t-12.5 33z" />
<glyph unicode="(" horiz-adv-x="528" d="M23 635q0 127 47 275t113 263t140 192t126 77q15 0 25.5 -11t10.5 -26q0 -5 -25 -45.5t-60 -110t-70.5 -157.5t-60.5 -210.5t-25 -246.5t21.5 -239t52 -194t61.5 -140t52.5 -98t21.5 -46q0 -17 -16.5 -27t-37.5 -10q-39 0 -102.5 69.5t-124.5 174t-105 245.5t-44 265z " />
<glyph unicode=")" horiz-adv-x="528" d="M41 1405q0 15 11 26t26 11q52 0 126 -77t140 -192t113 -263t47 -275q0 -124 -44.5 -265t-105.5 -245.5t-124.5 -174t-102.5 -69.5q-21 0 -37 9.5t-16 27.5q0 9 21.5 46t52 98t61.5 140t52.5 194t21.5 239t-25 246.5t-60.5 210.5t-71 157.5t-60.5 110t-25 45.5z" />
<glyph unicode="*" horiz-adv-x="401" d="M39 772q0 17 12 29t29 12h49l-25 43q-4 6 -4 21q0 16 11 28.5t28 12.5q23 0 37 -21l25 -43l24 43q14 21 37 21q17 0 28 -12.5t11 -28.5q0 -15 -4 -21l-25 -43h50q17 0 28.5 -12t11.5 -29t-11.5 -29t-28.5 -12h-50l25 -43q4 -6 4 -20q0 -16 -11 -28.5t-28 -12.5 q-24 0 -37 20l-24 43l-25 -43q-13 -20 -37 -20q-17 0 -28 12.5t-11 28.5q0 14 4 20l25 43h-49q-17 0 -29 12t-12 29z" />
<glyph unicode="+" horiz-adv-x="806" d="M12 446v86q0 12 9.5 21.5t21.5 9.5h287v287q0 12 9 21.5t21 9.5h86q12 0 21.5 -9.5t9.5 -21.5v-287h287q12 0 21.5 -9.5t9.5 -21.5v-86q0 -12 -9.5 -21t-21.5 -9h-287v-287q0 -12 -9.5 -21.5t-21.5 -9.5h-86q-12 0 -21 9.5t-9 21.5v287h-287q-12 0 -21.5 9t-9.5 21z" />
<glyph unicode="," horiz-adv-x="403" d="M41 80q0 68 57 110.5t131 42.5q61 0 95 -53t34 -123q0 -103 -70 -187.5t-155 -84.5q-51 0 -51 22q0 13 20 30.5t43.5 32.5t43.5 40t20 51q0 20 -14.5 26.5t-49.5 6.5q-42 0 -73 24t-31 62z" />
<glyph unicode="-" horiz-adv-x="733" d="M66 375q0 25 17 42t42 17h481q25 0 42.5 -17t17.5 -42t-17.5 -42.5t-42.5 -17.5h-481q-25 0 -42 17.5t-17 42.5z" />
<glyph unicode="." horiz-adv-x="385" d="M47 80q0 68 57.5 110.5t131.5 42.5q41 0 70.5 -25.5t29.5 -64.5q0 -66 -55.5 -107.5t-128.5 -41.5q-42 0 -73.5 24t-31.5 62z" />
<glyph unicode="/" horiz-adv-x="1112" d="M4 0q0 18 14 39l981 1221q19 22 48 22q25 0 43 -17.5t18 -43.5q0 -18 -14 -39l-981 -1221q-19 -22 -47 -22q-25 0 -43.5 17.5t-18.5 43.5z" />
<glyph unicode="0" horiz-adv-x="995" d="M49 602q0 112 29.5 218t84.5 192.5t142 139t193 52.5q86 0 159.5 -34.5t126 -93t89.5 -136t55 -163.5t18 -175t-18 -175t-55 -163.5t-89.5 -136t-126 -93t-159.5 -34.5q-106 0 -193 52.5t-142 139t-84.5 192.5t-29.5 218zM276 602q0 -49 1.5 -89.5t7.5 -90.5t15 -89 t26 -77.5t40 -63.5t56.5 -41t75.5 -16t75.5 16t56 41t39.5 64t26.5 77.5t15 88.5t7 90.5t1.5 89.5t-1.5 89.5t-7 90.5t-15 88.5t-26.5 77.5t-39.5 64t-56 41t-75.5 16t-75.5 -16t-56.5 -41t-40 -63.5t-26 -77.5t-15 -89t-7.5 -90.5t-1.5 -89.5z" />
<glyph unicode="1" horiz-adv-x="548" d="M31 991q0 27 40.5 78.5t107.5 96t126 44.5q101 0 101 -139v-895q0 -26 14.5 -42.5t40.5 -31.5q51 -26 51 -59q0 -19 -12 -31t-31 -12h-332q-19 0 -31 12t-12 31q0 33 51 59q17 10 27 18t19.5 23t9.5 33v756q0 69 -29 69q-13 0 -52.5 -21.5t-60.5 -21.5q-13 0 -20.5 10 t-7.5 23z" />
<glyph unicode="2" horiz-adv-x="909" d="M45 78q0 56 41 110l393 517q29 37 47.5 65t37 77t18.5 95q0 58 -37.5 100.5t-93.5 42.5q-43 0 -80 -27.5t-37 -58.5q0 -26 -1 -42t-5.5 -39t-14 -36t-27.5 -22.5t-44 -9.5q-39 0 -67 30t-28 70q0 80 50 141.5t125.5 92t160.5 30.5q127 0 222.5 -78.5t95.5 -197.5 q0 -164 -148 -328l-346 -372q-15 -16 -19.5 -25t-4.5 -23q0 -16 17.5 -23t35.5 -7h311q32 0 62.5 25t59.5 50t56 25q17 0 27 -13.5t10 -31.5q0 -4 -10 -39l-66 -108q-14 -28 -40 -48t-54 -20h-565q-82 0 -82 78z" />
<glyph unicode="3" horiz-adv-x="841" d="M41 225q0 42 28 70.5t72 28.5q39 0 58 -27t30 -74q31 -127 156 -127q81 0 134.5 67.5t53.5 153.5q0 232 -186 275q-80 18 -101 31q-32 19 -32 57q0 16 8 28.5t27 21.5t33.5 14.5t44.5 14t45 13.5q47 16 76.5 57.5t29.5 104.5q0 66 -37 118t-92 52q-22 0 -38.5 -7.5 t-26.5 -24t-15 -29t-12 -35.5q-7 -22 -12 -34t-15 -27t-25 -22t-36 -7q-39 0 -58.5 26.5t-19.5 65.5q0 67 50 116.5t122 72t152 22.5q107 0 183.5 -76.5t76.5 -183.5q0 -166 -172 -261q121 -39 187.5 -136.5t66.5 -229.5q0 -102 -58.5 -185t-152 -127.5t-199.5 -44.5 q-87 0 -163.5 26.5t-129.5 84.5t-53 137z" />
<glyph unicode="4" horiz-adv-x="854" d="M10 457q0 18 4.5 33.5t10 25t18.5 29.5l422 592q28 38 53.5 55.5t63.5 17.5q35 0 56 -25t21 -65v-614h91q28 0 46.5 -19t18.5 -47t-18.5 -46.5t-46.5 -18.5h-91v-199q0 -18 9.5 -33t19.5 -23t27 -18q51 -26 51 -59q0 -19 -12 -31t-31 -12h-320q-19 0 -31 12t-12 31 q0 32 52 59q26 15 40.5 31.5t14.5 42.5v199h-379q-29 0 -53.5 24.5t-24.5 57.5zM199 532q0 -12 13 -19t28 -7h227v428l-244 -352q-3 -5 -8 -13.5t-8 -13.5t-5.5 -11.5t-2.5 -11.5z" />
<glyph unicode="5" horiz-adv-x="905" d="M59 252q0 42 31 72t74 30q10 0 18 -1.5t15.5 -6t13 -8t11.5 -12t9 -12.5t8.5 -16t7.5 -16t7.5 -18t7.5 -18q10 -26 20 -43t27 -36t42 -28.5t59 -9.5q69 0 117 47.5t68.5 115t20.5 144.5q0 63 -18.5 121.5t-57.5 99.5t-91 41q-42 0 -86.5 -25.5t-83.5 -51t-68 -25.5 q-32 0 -49 18t-17 48q0 28 5 43l88 415q15 72 129 72q40 0 101 -5t101 -5q61 0 115.5 17.5t83.5 17.5q12 0 22.5 -11.5t10.5 -23.5q0 -48 -83.5 -103t-168.5 -55q-27 0 -70 4t-71 4q-19 0 -37 -9.5t-21 -21.5l-31 -145q0 -20 14 -30.5t34 -10.5q9 0 62 13.5t87 13.5 q74 0 136.5 -34.5t104 -91.5t64.5 -129t23 -149q0 -183 -126 -313.5t-306 -130.5q-86 0 -166.5 31t-133.5 91.5t-53 135.5z" />
<glyph unicode="6" horiz-adv-x="907" d="M47 588q0 117 32 225.5t91.5 196t155.5 140t215 52.5q106 0 197 -50.5t91 -125.5q0 -40 -28.5 -70t-67.5 -30q-21 0 -37 5t-28 17.5t-18.5 20.5t-17 28.5t-14.5 26.5q-18 32 -44 50t-74 18q-69 0 -122.5 -64t-81.5 -155t-34 -193q133 88 258 88q97 0 175 -56.5 t119.5 -146t41.5 -190.5q0 -163 -119 -278t-284 -115q-102 0 -182.5 54t-128 143t-71.5 193.5t-24 215.5zM262 537q21 -428 211 -428q58 0 97 42t54 99.5t15 124.5q0 65 -18 122t-60 97.5t-100 40.5q-60 0 -102.5 -24t-96.5 -74z" />
<glyph unicode="7" horiz-adv-x="794" d="M39 956q0 25 25.5 75t60.5 97q41 54 92 54h430q51 0 88 -23t37 -65q0 -39 -31 -92.5t-100.5 -167.5t-130.5 -246q-45 -96 -61.5 -222.5t-18.5 -322.5q0 -19 -12 -31t-31 -12h-141q-19 0 -31 12t-12 31q0 26 3 80t20 160.5t44 181.5q24 68 64.5 145t76.5 135.5t113 176.5 q31 44 31 73q0 37 -51 37h-225q-28 -1 -58.5 -21t-51.5 -43.5t-45.5 -43t-41.5 -19.5q-21 0 -32 14.5t-11 36.5z" />
<glyph unicode="8" horiz-adv-x="925" d="M45 332q0 119 72 211t186 135q-77 35 -123.5 97.5t-46.5 144.5q0 121 99 197.5t231 76.5t232 -76.5t100 -197.5q0 -82 -46.5 -144.5t-123.5 -97.5q114 -43 185 -135t71 -211q0 -158 -125 -262.5t-293 -104.5t-293 104.5t-125 262.5zM272 332q0 -85 55 -148t136 -63 t135.5 63t54.5 148q0 95 -52.5 166t-137.5 71t-138 -71.5t-53 -165.5zM334 920q0 -62 36 -109t93 -47q58 0 94.5 47t36.5 109q0 61 -37 107t-94 46q-56 0 -92.5 -46t-36.5 -107z" />
<glyph unicode="9" horiz-adv-x="907" d="M51 809q0 163 119.5 278t284.5 115q102 0 182.5 -54t127.5 -143t71 -193.5t24 -215.5q0 -93 -19.5 -181.5t-60 -167t-98 -137.5t-139 -93.5t-176.5 -34.5q-106 0 -197.5 50.5t-91.5 125.5q0 40 28.5 70t67.5 30q21 0 37 -5t28 -17.5t18.5 -20.5t17 -28.5t14.5 -26.5 q39 -68 119 -68q69 0 122.5 64t81 155t33.5 193q-133 -88 -258 -88q-97 0 -175 56.5t-119.5 146t-41.5 190.5zM268 809q0 -65 18 -122t60 -97.5t100 -40.5q60 0 102.5 24t96.5 74q-21 428 -211 428q-58 0 -97 -42t-54 -99.5t-15 -124.5z" />
<glyph unicode=":" horiz-adv-x="393" d="M51 86q0 68 57.5 111t131.5 43q41 0 70.5 -25.5t29.5 -64.5q0 -66 -55.5 -108t-128.5 -42q-42 0 -73.5 24t-31.5 62zM51 457q0 68 57.5 110.5t131.5 42.5q41 0 70.5 -25.5t29.5 -64.5q0 -66 -55.5 -107.5t-128.5 -41.5q-42 0 -73.5 24t-31.5 62z" />
<glyph unicode=";" horiz-adv-x="401" d="M37 80q0 68 57 110.5t131 42.5q61 0 95 -53t34 -123q0 -103 -70 -187.5t-155 -84.5q-51 0 -51 22q0 13 20 30.5t43.5 32.5t43.5 40t20 51q0 20 -14.5 26.5t-49.5 6.5q-42 0 -73 24t-31 62zM51 457q0 68 57.5 110.5t131.5 42.5q41 0 70.5 -25.5t29.5 -64.5 q0 -66 -55.5 -107.5t-128.5 -41.5q-42 0 -73.5 24t-31.5 62z" />
<glyph unicode="&#x3c;" horiz-adv-x="980" d="M4 512v147l907 418v-153l-755 -340l755 -334v-152z" />
<glyph unicode="=" horiz-adv-x="976" d="M70 379v156h852v-156h-852zM70 641v156h852v-156h-852z" />
<glyph unicode="&#x3e;" horiz-adv-x="983" d="M70 98v152l757 334l-757 340v153l909 -418v-147z" />
<glyph unicode="?" horiz-adv-x="710" d="M35 1010q0 61 47.5 113t120.5 80t149 28q133 0 231.5 -82.5t98.5 -208.5q0 -79 -37.5 -133.5t-101.5 -99.5q-19 -13 -54 -35t-52.5 -34t-34.5 -29.5t-21 -33.5q-31 -141 -35 -190q-2 -24 -17 -39.5t-38 -15.5t-39 16t-16 39q0 7 -8.5 103.5t-8.5 156.5q0 21 26.5 46 t64 51.5t75 57.5t64 77t26.5 98q0 55 -39.5 95t-95.5 40q-54 0 -76 -25.5t-33 -72.5q-14 -61 -28 -79q-21 -28 -64 -28q-44 0 -74 31t-30 74zM180 80q0 68 57.5 110.5t131.5 42.5q41 0 70.5 -25.5t29.5 -64.5q0 -66 -55.5 -107.5t-128.5 -41.5q-42 0 -73.5 24t-31.5 62z" />
<glyph unicode="@" horiz-adv-x="1474" d="M121 633q0 188 90.5 339t240 232.5t326.5 81.5q165 0 301.5 -70t215.5 -193t79 -273q0 -63 -13.5 -124.5t-41.5 -116.5t-67 -96.5t-94.5 -66t-119.5 -24.5q-126 0 -153 88q-25 -38 -79 -70.5t-104 -32.5q-101 0 -173 74t-72 176t75 172t179 70q46 0 127 -21 q0 125 -123 125q-23 0 -61 -2t-62 -2q-22 0 -38.5 10.5t-16.5 28.5q0 36 65 52t146 16q133 0 199.5 -58t66.5 -168v-319q0 -43 61 -43q50 0 94.5 53t68.5 128.5t24 148.5q0 77 -33 153t-93 138.5t-153.5 101.5t-204.5 39q-70 0 -141.5 -21t-139 -65.5t-120 -107.5 t-84 -154.5t-31.5 -198.5q0 -134 75.5 -249t198.5 -180t261 -65q81 0 153.5 14.5t112 31.5t70.5 31.5t41 14.5q17 0 26.5 -13t9.5 -32q0 -34 -34 -53q-185 -100 -377 -100q-136 0 -251 38.5t-192 100.5t-131.5 142t-79 160.5t-24.5 158.5zM635 561q0 -52 33.5 -88.5 t83.5 -36.5q32 0 59 26.5t27 51.5v133q-1 17 -25 27t-53 10q-53 0 -89 -35.5t-36 -87.5z" />
<glyph unicode="A" horiz-adv-x="1118" d="M27 45q0 4 1 8.5t4 9.5t6 9t8 9t9 8.5t11 9t10.5 8.5t12 9t11.5 9q42 33 70 119l260 805q14 47 52.5 92t90.5 45q49 0 87 -34.5t53 -78.5l264 -852q9 -28 13 -39.5t14 -30.5t24 -32q7 -6 21.5 -18t21 -18.5t13 -18.5t6.5 -25q0 -17 -13.5 -28t-36.5 -11h-319 q-51 0 -51 43q0 18 11.5 31t26 21t26 26t11.5 45q0 51 -9 95t-26.5 100t-25.5 94h-291l-71 -258q-5 -20 -5 -33q0 -26 14.5 -48.5t29 -39.5t14.5 -31q0 -45 -53 -45h-248q-23 0 -35 13t-12 32zM428 592h219l-88 305q-3 10 -14 10q-12 0 -15 -10z" />
<glyph unicode="B" horiz-adv-x="1036" d="M59 43q0 32 52 59q26 15 40.5 31.5t14.5 42.5v830q0 18 -9 33t-19 22.5t-27 17.5q-52 27 -52 60q0 19 12 31t31 12h439q86 0 160.5 -30t122.5 -90.5t48 -139.5q0 -135 -145 -230q97 -30 180.5 -123t83.5 -207q0 -102 -60 -186.5t-152 -130t-191 -45.5h-486q-19 0 -31 12 t-12 31zM399 231q0 -112 125 -112q92 0 155.5 70t63.5 165q0 108 -74 178.5t-192 71.5h-78v-373zM399 745h52q82 0 136 47.5t54 122.5q0 60 -47.5 101t-110.5 41q-29 0 -56.5 -19.5t-27.5 -38.5v-254z" />
<glyph unicode="C" horiz-adv-x="937" d="M43 567q0 124 39 241t107.5 208.5t171.5 147t223 55.5q119 0 211 -62t92 -166q0 -41 -31.5 -68.5t-75.5 -27.5q-93 0 -116 106q-24 105 -111 105q-62 0 -114 -49.5t-84 -128t-50 -170t-18 -180.5q0 -86 17 -164t52.5 -146t100 -108.5t149.5 -40.5q46 0 108 17.5t70 17.5 q27 0 48.5 -14t21.5 -36q0 -39 -50 -71t-119.5 -48t-137.5 -16q-148 0 -264.5 82t-178 218t-61.5 298z" />
<glyph unicode="D" horiz-adv-x="1120" d="M59 43q0 32 52 59q26 15 40.5 31.5t14.5 42.5v830q0 18 -9 33t-19 22.5t-27 17.5q-52 27 -52 60q0 19 12 31t31 12h439q69 0 140 -19.5t142 -64.5t125.5 -110t88.5 -164.5t34 -219.5q0 -112 -31.5 -211.5t-82 -169.5t-114.5 -121.5t-129.5 -76.5t-125.5 -25h-486 q-19 0 -31 12t-12 31zM399 231q0 -112 125 -112q76 0 135.5 44t94 115.5t52 154t17.5 169.5q0 130 -38 231.5t-116.5 162.5t-185.5 61q-29 0 -56.5 -19.5t-27.5 -38.5v-768z" />
<glyph unicode="E" horiz-adv-x="999" d="M57 43q0 32 52 59q26 15 40.5 31.5t14.5 42.5v830q0 18 -9 33t-19 22.5t-27 17.5q-52 27 -52 60q0 19 12 31t31 12h641q65 0 105.5 -61t40.5 -138q0 -90 -49 -90q-17 0 -29.5 10.5t-32 40.5t-26.5 39q-55 74 -142 74h-127q-31 0 -57.5 -19t-26.5 -47v-291h197 q18 0 33 9.5t23 19.5t18 27q26 51 59 51q19 0 31 -12t12 -31v-256q0 -19 -12 -31t-31 -12q-33 0 -59 51q-15 26 -31.5 40.5t-42.5 14.5h-197v-340q0 -56 30.5 -80t94.5 -24h137q33 0 71.5 19.5t67.5 43t57 43t42 19.5q19 0 33 -11.5t14 -29.5q0 -49 -57.5 -130t-91.5 -81 h-695q-19 0 -31 12t-12 31z" />
<glyph unicode="F" horiz-adv-x="927" d="M57 43q0 32 52 59q26 15 40.5 31.5t14.5 42.5v830q0 18 -9 33t-19 22.5t-27 17.5q-52 27 -52 60q0 19 12 31t31 12h660q65 0 105 -60.5t40 -138.5q0 -90 -49 -90q-17 0 -29.5 10.5t-32 40.5t-26.5 39q-55 74 -141 74h-146q-31 0 -57.5 -19t-26.5 -47v-291h197 q18 0 33 9.5t23 19.5t18 27q26 51 59 51q19 0 31 -12t12 -31v-256q0 -19 -12 -31t-31 -12q-33 0 -59 51q-15 26 -31.5 40.5t-42.5 14.5h-197v-395q0 -18 9.5 -33t19.5 -23t27 -18q51 -26 51 -59q0 -19 -12 -31t-31 -12h-361q-19 0 -31 12t-12 31z" />
<glyph unicode="G" horiz-adv-x="1036" d="M47 598q0 95 24 187.5t71 171.5t111 139t148 94.5t177 34.5q115 0 212 -58.5t97 -144.5q0 -47 -32 -82t-77 -35q-12 0 -22.5 2t-18.5 4t-16 8t-13.5 9.5t-11.5 12.5t-9 13t-8.5 15t-7.5 14.5t-7.5 16.5t-6.5 16q-10 24 -16.5 37t-19.5 29.5t-31.5 24t-44.5 7.5 q-74 0 -133 -83.5t-88 -200t-29 -232.5q0 -87 17 -169t51 -153.5t95 -115t140 -43.5q26 0 44 7.5t26.5 22t11.5 27t4 29.5v170q0 15 -10.5 27t-21 17t-31.5 13q-50 22 -50 57q0 19 12 31t31 12h336q19 0 31 -12t12 -31q0 -36 -51 -59q-21 -9 -28 -20.5t-9 -34.5v-250 q0 -49 -50 -85t-118 -51.5t-139 -15.5q-249 0 -400 167t-151 460z" />
<glyph unicode="H" horiz-adv-x="1142" d="M59 43q0 32 52 59q26 15 40.5 31.5t14.5 42.5v830q0 18 -9 33t-19 22.5t-27 17.5q-52 27 -52 60q0 18 14 30.5t33 12.5h345q19 0 31 -12t12 -31q0 -33 -52 -60q-17 -10 -27 -17.5t-19 -22.5t-9 -33v-289h369v289q0 18 -9.5 33t-19 22t-27.5 18q-51 26 -51 60 q0 18 14 30.5t33 12.5h344q19 0 31 -12t12 -31q0 -34 -51 -60q-17 -10 -27 -17.5t-19 -22.5t-9 -33v-830q0 -26 14.5 -42.5t40.5 -31.5q51 -26 51 -59q0 -19 -12 -31t-31 -12h-348q-19 0 -31 12t-12 31q0 33 51 59q17 10 27 18t19.5 23t9.5 33v412h-369v-412 q0 -26 14.5 -42.5t40.5 -31.5q52 -27 52 -59q0 -19 -12 -31t-31 -12h-349q-19 0 -31 12t-12 31z" />
<glyph unicode="I" horiz-adv-x="530" d="M47 43q0 33 51 59q17 10 27 18t19.5 23t9.5 33v830q0 18 -9.5 33t-19 22t-27.5 18q-51 26 -51 60q0 18 14 30.5t33 12.5h344q19 0 31 -12t12 -31q0 -34 -51 -60q-17 -10 -27 -17.5t-19 -22.5t-9 -33v-830q0 -26 14.5 -42.5t40.5 -31.5q51 -26 51 -59q0 -19 -12 -31 t-31 -12h-348q-19 0 -31 12t-12 31z" />
<glyph unicode="J" horiz-adv-x="733" d="M23 102q0 22 17 38t40 16q5 0 60 -22.5t91 -22.5q70 0 103 56t35 152v687q0 18 -9.5 33t-19 22t-27.5 18q-51 26 -51 60q0 18 14 30.5t33 12.5h344q19 0 31 -12t12 -31q0 -34 -51 -60q-17 -10 -27 -17.5t-19 -22.5t-9 -33v-684q0 -176 -81.5 -267.5t-223.5 -91.5 q-87 0 -174.5 46.5t-87.5 92.5z" />
<glyph unicode="K" horiz-adv-x="1036" d="M57 43q0 32 52 59q26 15 40.5 31.5t14.5 42.5v830q0 18 -9 33t-19 22.5t-27 17.5q-52 27 -52 60q0 18 14 30.5t33 12.5h345q19 0 31 -12t12 -31q0 -33 -52 -60q-17 -10 -27 -17.5t-19 -22.5t-9 -33v-158l277 264q74 70 124 70h140q19 0 31 -12t12 -31q0 -20 -18 -37 t-42 -25q-83 -28 -116 -57l-304 -258q135 -41 205.5 -98t124.5 -160q16 -32 24.5 -83.5t15.5 -125t15 -119.5q1 -19 10.5 -34t19 -22.5t26.5 -17.5q51 -26 51 -59q0 -19 -12 -31t-31 -12h-225q-24 3 -37.5 23.5t-13.5 52.5q0 23 -1 47t-6.5 77.5t-15 99.5t-30.5 102.5 t-49 98.5t-73.5 74.5t-101.5 42.5v-442q0 -26 14.5 -42.5t40.5 -31.5q52 -27 52 -59q0 -19 -12 -31t-31 -12h-349q-19 0 -31 12t-12 31z" />
<glyph unicode="L" horiz-adv-x="964" d="M57 43q0 32 52 59q26 15 40.5 31.5t14.5 42.5v830q0 18 -9 33t-19 22.5t-27 17.5q-52 27 -52 60q0 19 12 31t31 12h351q19 0 31 -12t12 -31q0 -33 -52 -60q-17 -10 -27 -17.5t-19 -22.5t-9 -33v-744q0 -58 31.5 -90.5t93.5 -32.5h137q33 0 74 25t72 55t61.5 55t44.5 25 q19 0 33 -11.5t14 -29.5q0 -25 -25 -85.5t-66.5 -116.5t-78.5 -56h-678q-19 0 -31 12t-12 31z" />
<glyph unicode="M" horiz-adv-x="1376" d="M66 43q0 33 51 59q26 15 40.5 31.5t14.5 42.5v830q0 18 -9 33t-19 22.5t-27 17.5q-51 26 -51 60q0 19 12 31t31 12h190q48 0 112.5 -76t104.5 -158l178 -375l162 398q17 39 38.5 80.5t59.5 86t70 44.5h244q19 0 31 -12t12 -31q0 -34 -51 -60q-18 -11 -27.5 -18t-19 -22 t-9.5 -33v-830q0 -18 9.5 -33t19.5 -23t27 -18q51 -26 51 -59q0 -19 -12 -31t-31 -12h-348q-19 0 -31 12t-12 31q0 33 51 59q26 15 40.5 31.5t14.5 42.5v748q-186 -385 -238 -752q-16 -70 -75 -70q-34 0 -53 16t-29 58q-120 482 -275 684v-684q0 -18 9.5 -33t19.5 -23 t27 -18q51 -26 51 -59q0 -19 -12 -31t-31 -12h-268q-19 0 -31 12t-12 31z" />
<glyph unicode="N" horiz-adv-x="1099" d="M55 43q0 33 51 59q17 10 27 18t19.5 23t9.5 33v830q0 18 -9.5 33t-19 22t-27.5 18q-51 26 -51 60q0 19 12 31t31 12h191q56 0 83.5 -17.5t59.5 -62.5q75 -103 133 -199.5t134 -238t102 -187.5v529q0 18 -9.5 33t-19 22t-27.5 18q-51 26 -51 60q0 19 12 31t31 12h269 q19 0 31 -12t12 -31q0 -33 -52 -60q-17 -10 -27 -17.5t-19 -22.5t-9 -33v-891q0 -50 -18.5 -88.5t-57.5 -38.5q-77 0 -121 84q-29 65 -77.5 168t-166.5 330t-198 345v-739q0 -26 14.5 -42.5t40.5 -31.5q52 -27 52 -59q0 -19 -12 -31t-31 -12h-269q-19 0 -31 12t-12 31z" />
<glyph unicode="O" horiz-adv-x="1128" d="M47 596q0 118 37 230.5t102.5 200t164 141t212.5 53.5t212.5 -53.5t164 -141t102.5 -200t37 -230.5t-37 -230.5t-102.5 -200t-164 -141t-212.5 -53.5t-212.5 53.5t-164 141t-102.5 200t-37 230.5zM289 596q0 -72 7 -137t26 -132t49 -115.5t79 -79t113 -30.5t113.5 30.5 t79 79t49 115.5t26.5 132t7 137t-7 137t-26.5 132t-49 115.5t-79 79t-113.5 30.5t-113 -30.5t-79 -79t-49 -115.5t-26 -132t-7 -137z" />
<glyph unicode="P" horiz-adv-x="1013" d="M59 43q0 32 52 59q26 15 40.5 31.5t14.5 42.5v830q0 18 -9 33t-19 22.5t-27 17.5q-52 27 -52 60q0 19 12 31t31 12h439q201 0 324.5 -112t123.5 -288q0 -159 -115 -269t-276 -110q-81 0 -199 48v-275q0 -18 9.5 -33t19.5 -23t27 -18q51 -26 51 -59q0 -19 -12 -31t-31 -12 h-361q-19 0 -31 12t-12 31zM399 614q74 -67 152 -67q90 0 149.5 70t59.5 165q0 121 -71 198t-206 77q-29 0 -56.5 -19.5t-27.5 -38.5v-385z" />
<glyph unicode="Q" horiz-adv-x="1110" d="M33 596q0 118 37 230.5t102.5 200t164 141t212.5 53.5t212.5 -53.5t164 -141t102.5 -200t37 -230.5q0 -179 -82.5 -342.5t-220.5 -230.5q31 -12 120 -76.5t122 -77.5q47 -20 68.5 -37t21.5 -39q0 -36 -32 -55t-73 -19q-148 0 -211 66q-161 166 -319 195 q-139 25 -237.5 119.5t-143.5 222t-45 274.5zM274 596q0 -72 7 -137t26.5 -132t49 -115.5t79 -79t113.5 -30.5t113 30.5t79 79t49 115.5t26 132t7 137t-7 137t-26 132t-49 115.5t-79 79t-113 30.5t-113.5 -30.5t-79 -79t-49 -115.5t-26.5 -132t-7 -137z" />
<glyph unicode="R" horiz-adv-x="1081" d="M59 43q0 32 52 59q26 15 40.5 31.5t14.5 42.5v830q0 18 -9 33t-19 22.5t-27 17.5q-52 27 -52 60q0 19 12 31t31 12h424q377 0 377 -303q0 -51 -18.5 -93t-54 -74t-66 -52t-76.5 -44q59 -28 102.5 -78.5t69 -118t38.5 -129t22 -138.5q8 -19 29 -34t40.5 -23t35 -24.5 t15.5 -39.5q0 -31 -47 -31h-243q-29 0 -45.5 32.5t-16.5 71.5q0 70 -7 127t-27 115.5t-53 100.5t-88 73.5t-128 42.5v-387q0 -26 14.5 -42.5t40.5 -31.5q52 -27 52 -59q0 -19 -12 -31t-31 -12h-347q-19 0 -31 12t-12 31zM385 727q30 -27 46 -33t48 -6q79 0 136 53.5 t57 130.5q0 87 -50 140t-153 53q-29 0 -56.5 -19t-27.5 -38v-281z" />
<glyph unicode="S" horiz-adv-x="880" d="M45 170q0 36 32.5 64t74.5 28q30 0 57 -17.5t50 -43t49.5 -51t65.5 -43t87 -17.5q63 0 110 39.5t47 99.5q0 49 -41.5 110t-77.5 95.5t-124 111.5q-14 13 -21 19q-60 52 -98 88.5t-80.5 87t-63 100.5t-20.5 101q0 87 58.5 151.5t143 94t179.5 29.5q71 0 136 -18t112 -59.5 t47 -99.5q0 -34 -24 -58t-58 -24q-10 0 -18.5 1t-17 4t-14.5 5.5t-14 8.5t-12.5 8.5t-12.5 11t-11 11t-12 12.5t-11 12q-20 20 -33.5 31t-38 21t-53.5 10q-49 0 -85 -30.5t-36 -76.5q0 -39 32.5 -86t69.5 -82t107 -94q44 -38 63 -54.5t59.5 -54.5t60 -60.5t48 -60t42.5 -67 t24.5 -67t10.5 -74.5q0 -74 -34 -136.5t-90.5 -104t-129 -64.5t-148.5 -23q-91 0 -177 22.5t-148 72t-62 116.5z" />
<glyph unicode="T" d="M33 989q0 55 49.5 124t114.5 69h618q65 0 113.5 -69t48.5 -124q0 -24 -10.5 -38.5t-30.5 -14.5q-14 0 -29 6.5t-24 13.5t-27 22.5t-27 22.5q-54 43 -114 43q-47 0 -74.5 -16t-28.5 -65v-789q0 -18 9.5 -33t19.5 -23t27 -18q51 -26 51 -59q0 -19 -12 -31t-31 -12h-340 q-19 0 -31 12t-12 31q0 33 51 59q26 15 40.5 31.5t14.5 42.5v789q-1 49 -28 65t-74 16q-61 0 -115 -43q-9 -7 -26.5 -22.5t-26.5 -22.5t-24 -13.5t-29 -6.5q-20 0 -31.5 14.5t-11.5 38.5z" />
<glyph unicode="U" horiz-adv-x="1062" d="M43 1139q0 18 14 30.5t33 12.5h334q19 0 31 -12t12 -31q0 -34 -51 -60q-18 -11 -27.5 -18t-19 -22t-9.5 -33v-633q0 -63 21 -121.5t71 -102t121 -43.5q100 0 152.5 76.5t54.5 190.5v633q0 18 -9 33t-19 22.5t-27 17.5q-51 26 -51 60q0 18 14 30.5t33 12.5h254 q19 0 31 -12t12 -31q0 -34 -51 -60q-18 -11 -27.5 -18t-19 -22t-9.5 -33v-648q0 -65 -13.5 -123t-44.5 -110.5t-77 -90.5t-115 -60.5t-155 -22.5q-91 0 -162 37t-112 98t-61.5 132.5t-20.5 148.5v639q0 18 -9.5 33t-19 22t-27.5 18q-51 26 -51 60z" />
<glyph unicode="V" horiz-adv-x="1150" d="M23 1139q0 18 14 30.5t33 12.5h344q19 0 31 -12t12 -31q0 -21 -45 -60.5t-45 -56.5q0 -63 12 -98q101 -352 227 -615q9 -22 29 -22t27 20q114 303 180 629q6 27 6 92q0 14 -9.5 27t-17.5 19.5t-26 17.5q-12 9 -16 12.5t-9.5 12.5t-5.5 20q0 18 12.5 31.5t40.5 13.5h262 q20 0 32.5 -11.5t12.5 -31.5t-16.5 -34.5t-42 -30t-37.5 -32.5q-44 -64 -57 -124q-111 -457 -217 -750q-6 -16 -18 -50t-18.5 -51.5t-19.5 -42.5t-24.5 -37.5t-29 -22t-38.5 -9.5q-37 0 -65 24t-40.5 48.5t-35.5 80.5q-5 13 -8 19l-307 836q-17 45 -49 79.5t-55 56t-23 40.5 z" />
<glyph unicode="W" horiz-adv-x="1624" d="M37 1139q0 18 14 30.5t33 12.5h344q19 0 31 -12t12 -31q0 -21 -45 -60.5t-45 -56.5q0 -63 12 -98q11 -40 41.5 -150.5t47.5 -168.5t49.5 -147t66.5 -161q129 405 190 788q2 42 24 77.5t60 35.5q30 0 50.5 -26.5t23.5 -57.5q40 -177 65.5 -280.5t71.5 -258.5t95 -280 q92 285 143 641q6 27 6 92q0 18 -13 32.5t-29 23.5t-29 23t-13 30q0 18 12.5 31.5t40.5 13.5h242q20 0 32.5 -11.5t12.5 -31.5t-15.5 -34.5t-38.5 -30t-34 -32.5q-39 -61 -53 -124q-6 -29 -31 -167t-38 -202t-41 -176.5t-58 -204.5q-9 -24 -19 -59.5t-17 -57.5t-19 -44.5 t-30.5 -33t-45.5 -10.5q-45 0 -72 30.5t-49 86.5l-178 541q-27 -67 -58 -167.5t-54 -181t-49 -156.5t-54.5 -118.5t-59.5 -42.5q-45 0 -77.5 44t-67.5 128q-181 485 -260 836q-17 45 -49 79.5t-55 56t-23 40.5z" />
<glyph unicode="X" horiz-adv-x="1175" d="M51 43q0 33 51 59q4 2 18 10t23 13.5t21.5 14t21.5 18t15 18.5l282 461l-217 369q-11 18 -27.5 31t-44 27t-28.5 15q-51 26 -51 60q0 18 14 30.5t33 12.5h377q19 0 31 -12t12 -31q0 -17 -12.5 -31t-27.5 -22.5t-27.5 -22.5t-12.5 -31q0 -12 3 -21.5t11.5 -23t11.5 -18.5 l99 -174l137 200q10 15 10 39q0 16 -30.5 50.5t-30.5 54.5q0 18 14 30.5t33 12.5h280q19 0 31 -12t12 -31q0 -24 -21.5 -41.5t-49 -27.5t-59.5 -29.5t-48 -45.5l-205 -327l263 -457q21 -36 52 -65t56 -44q51 -26 51 -59q0 -19 -12 -31t-31 -12h-348q-19 0 -31 12t-12 31 q0 22 37 54t37 50q0 19 -17 46l-190 321l-180 -313q-19 -29 -19 -49q0 -22 35 -55t35 -54q0 -19 -12 -31t-31 -12h-289q-19 0 -31 12t-12 31z" />
<glyph unicode="Y" horiz-adv-x="1091" d="M31 1139q0 18 14 30.5t33 12.5h309q19 0 31 -12t12 -31q0 -24 -29.5 -49.5t-29.5 -40.5q0 -13 4.5 -29.5t8.5 -26.5l5 -10l186 -328l154 285q37 74 37 92q0 22 -34 54.5t-34 52.5q0 18 14 30.5t33 12.5h275q19 0 31 -12t12 -31q0 -17 -17.5 -34t-40 -30t-48.5 -34.5 t-39 -43.5l-267 -489v-332q0 -18 9.5 -33t19.5 -23t27 -18q51 -26 51 -59q0 -19 -12 -31t-31 -12h-336q-19 0 -31 12t-12 31q0 33 51 59q26 15 40.5 31.5t14.5 42.5v322l-305 522q-24 41 -55 59q-51 26 -51 60z" />
<glyph unicode="Z" horiz-adv-x="954" d="M55 121q0 32 7.5 58t15.5 41t31 52l489 746q9 14 -1 33.5t-30 19.5h-205q-33 0 -64.5 -25.5t-51.5 -55.5t-43 -55.5t-41 -25.5q-22 0 -32.5 19t-10.5 45l14 104q6 47 43 76t90 29h531q50 0 72 -15t22 -49q0 -9 -2.5 -16.5t-8 -17.5t-8.5 -17l-528 -838q-27 -37 -27 -53 q0 -21 20 -31t46 -10h235q43 1 81 21t60.5 43t46.5 42t42 19t31.5 -9.5t13.5 -25.5q0 -27 -20.5 -77.5t-66 -99t-99.5 -48.5h-506q-61 0 -103.5 32t-42.5 89z" />
<glyph unicode="[" horiz-adv-x="464" d="M68 1249q0 26 17.5 44t43.5 18h246q26 0 43.5 -18t17.5 -44t-17.5 -43.5t-43.5 -17.5h-123v-1254h127q26 0 43.5 -17.5t17.5 -43.5t-17.5 -43.5t-43.5 -17.5h-244q-26 0 -43.5 17.5t-17.5 43.5z" />
<glyph unicode="\" horiz-adv-x="643" d="M6 1239h119l512 -1239h-117z" />
<glyph unicode="]" horiz-adv-x="466" d="M25 -127q0 26 17.5 43.5t43.5 17.5h127v1254h-123q-26 0 -43.5 17.5t-17.5 43.5t17.5 44t43.5 18h246q26 0 43.5 -18t17.5 -44l-6 -1376q0 -26 -17.5 -43.5t-43.5 -17.5h-244q-26 0 -43.5 17.5t-17.5 43.5z" />
<glyph unicode="^" horiz-adv-x="1038" d="M29 477l413 907h148l420 -907h-156l-338 746l-336 -746h-151z" />
<glyph unicode="_" horiz-adv-x="1165" d="M70 -154h1024v-102h-1024v102z" />
<glyph unicode="`" horiz-adv-x="294" d="M20 1094q0 12 9.5 21t21.5 9h60q13 0 24 -14l127 -205q4 -8 4 -16q0 -12 -9 -21.5t-21 -9.5h-58q-16 0 -26 14l-125 205q-7 7 -7 17z" />
<glyph unicode="a" horiz-adv-x="892" d="M47 297q0 127 94.5 215t225.5 88q52 0 157 -27q0 83 -41.5 120.5t-111.5 37.5q-29 0 -77 -3t-77 -3q-27 0 -48.5 13.5t-21.5 35.5q0 24 25.5 41.5t67 26t84 12.5t88.5 4q167 0 250 -72.5t83 -210.5v-399q0 -18 9.5 -33t19.5 -23t27 -18q51 -26 51 -59q0 -19 -12 -31 t-31 -12h-207q-24 0 -34.5 18.5t-12.5 61.5q-34 -29 -58 -46t-63.5 -32.5t-79.5 -15.5q-127 0 -217 91.5t-90 219.5zM270 303q0 -64 42 -110t104 -46q41 0 74.5 33t33.5 64v166q-1 22 -31.5 34.5t-66.5 12.5q-65 0 -110.5 -45t-45.5 -109z" />
<glyph unicode="b" horiz-adv-x="968" d="M39 1077q0 22 40.5 56t104.5 61t119 27q39 0 65.5 -30.5t26.5 -68.5v-309q109 53 187 53q154 0 257 -120t103 -283q0 -131 -60 -244.5t-167 -182.5t-236 -69q-122 0 -212.5 76.5t-90.5 192.5v751q0 21 -11 37t-32 16q-22 0 -34 0.5t-28.5 4t-24 11.5t-7.5 21zM395 258 q0 -57 31.5 -103t83.5 -46q56 0 96.5 31.5t62 85t31 110.5t9.5 121q0 99 -46.5 178.5t-123.5 79.5q-57 0 -100.5 -45.5t-43.5 -102.5v-309z" />
<glyph unicode="c" horiz-adv-x="798" d="M43 442q0 180 120 311.5t294 131.5q103 0 186.5 -49t83.5 -129q0 -51 -37 -87t-90 -36q-28 0 -46.5 8t-29.5 26t-15.5 30.5t-10.5 37.5q-9 39 -25 59.5t-53 20.5q-72 0 -112 -64.5t-40 -148.5q0 -108 39.5 -203t118.5 -157t180 -62q24 0 60 6t59 6q17 0 29 -12t12 -29 q0 -45 -87 -80.5t-177 -35.5q-124 0 -229.5 61t-167.5 166t-62 229z" />
<glyph unicode="d" horiz-adv-x="892" d="M29 322q0 100 23.5 194t68 173t118.5 127t167 48q65 0 139 -41v176q0 21 -11 37.5t-32 16.5q-22 0 -34 0.5t-28.5 4t-24 11.5t-7.5 21q0 12 10.5 28.5t27.5 24.5l123 63q30 15 80 15q39 0 65.5 -30.5t26.5 -68.5v-946q0 -18 9.5 -33t19.5 -23t27 -18q51 -26 51 -59 q0 -19 -12 -31t-31 -12h-207q-23 0 -36 15t-27 48q-95 -81 -195 -81q-132 0 -221.5 101t-89.5 239zM242 424q0 -54 7 -101.5t24 -93t50 -72t80 -26.5t78 25.5t64 76.5v338q0 56 -29.5 107t-81.5 51q-51 0 -89.5 -27.5t-60 -73t-32 -97t-10.5 -107.5z" />
<glyph unicode="e" horiz-adv-x="819" d="M45 442q0 113 52.5 211t146 156.5t205.5 58.5q110 0 193 -62.5t83 -162.5q0 -60 -26 -111t-68 -86t-100 -61.5t-116 -41.5t-122 -24q36 -98 107 -152t171 -54q31 0 76.5 20.5t75.5 20.5q20 0 34.5 -10.5t14.5 -28.5q0 -51 -93 -97.5t-187 -46.5q-103 0 -188 38 t-141 102.5t-87 149.5t-31 181zM258 541q0 -51 6 -97q44 4 88 16.5t85.5 34.5t67 58.5t25.5 81.5q0 44 -28 76t-70 32q-76 0 -125 -60.5t-49 -141.5z" />
<glyph unicode="f" horiz-adv-x="677" d="M37 776q0 25 17 42.5t42 17.5h60v170q0 96 76 155.5t178 59.5q90 0 164.5 -50.5t74.5 -121.5q0 -46 -27.5 -80.5t-70.5 -34.5q-18 0 -32.5 7t-22.5 14t-16 24.5t-10 25t-9 29.5q-11 36 -27 55t-49 19q-34 0 -56 -28.5t-22 -65.5q0 -31 24.5 -65.5t24.5 -51.5v-61h90 q25 0 42.5 -17.5t17.5 -42.5t-17.5 -42t-42.5 -17h-90v-541q0 -18 9.5 -33t19.5 -23t27 -18q51 -26 51 -59q0 -19 -12 -31t-31 -12h-328q-19 0 -31 12t-12 31q0 33 51 59q17 10 27 18t19.5 23t9.5 33v541h-60q-25 0 -42 17t-17 42z" />
<glyph unicode="g" d="M37 -10q0 120 139 284q-70 99 -70 215q0 154 109.5 264.5t263.5 110.5q124 0 219 -73q74 67 164 67q38 0 67 -20.5t29 -53.5q0 -29 -21.5 -49t-51.5 -20q-17 0 -41.5 9t-40.5 9q-20 0 -35 -12q80 -103 80 -232q0 -154 -108 -263t-261 -109q-117 0 -215 69 q-49 -49 -49 -100q0 -43 38.5 -68.5t88.5 -25.5q64 0 166 14t166 14q84 0 143.5 -56t59.5 -138q0 -67 -41.5 -123.5t-92.5 -56.5q-13 0 -22.5 11.5t-9.5 25.5q0 10 14 37.5t14 52.5t-24.5 37t-57.5 12q-69 0 -178 -19.5t-178 -19.5q-105 0 -184.5 56.5t-79.5 150.5zM319 602 q0 -66 10.5 -124t33.5 -109.5t64.5 -82t98.5 -30.5q56 0 87.5 50t31.5 116t-24 133t-73 115.5t-110 48.5q-48 0 -83.5 -34t-35.5 -83z" />
<glyph unicode="h" horiz-adv-x="999" d="M53 1079q0 39 45 62l135 63q41 17 68 17q51 0 71.5 -20.5t20.5 -74.5v-358q41 29 66 44t68.5 30.5t86.5 15.5q115 0 185.5 -74.5t70.5 -208.5v-399q0 -18 9.5 -33t19.5 -23t27 -18q51 -26 51 -59q0 -19 -12 -31t-31 -12h-334q-19 0 -31 12t-12 31q0 33 51 59q17 10 27 18 t19.5 23t9.5 33v381q0 53 -36 89t-89 36q-56 0 -101 -50t-45 -97v-359q0 -18 9.5 -33t19.5 -23t27 -18q51 -26 51 -59q0 -19 -12 -31t-31 -12h-334q-19 0 -31 12t-12 31q0 33 51 59q26 15 40.5 31.5t14.5 42.5v836q0 19 -20.5 25.5t-63.5 6.5q-19 0 -34 9.5t-15 25.5z" />
<glyph unicode="i" horiz-adv-x="518" d="M39 721q0 42 45 61l135 64q41 16 68 16q51 0 71.5 -20t20.5 -74v-592q0 -26 14.5 -42.5t40.5 -31.5q51 -26 51 -59q0 -19 -12 -31t-31 -12h-333q-19 0 -31 12t-12 31q0 33 51 59q26 15 40.5 31.5t14.5 42.5v477q0 33 -84 33q-19 0 -34 9.5t-15 25.5zM84 1075 q0 53 58.5 99.5t127.5 46.5q48 0 83.5 -28.5t35.5 -72.5q0 -57 -65 -101t-117 -44q-56 0 -89.5 29t-33.5 71z" />
<glyph unicode="j" horiz-adv-x="446" d="M-213 -276q0 18 13 29t32 11q26 0 67 -5t66 -5q60 0 109.5 44.5t73.5 102.5t24 109v643q0 33 -84 33q-19 0 -34 9.5t-15 25.5q0 14 11 29t22 24l12 8l135 64q41 16 68 16q51 0 71.5 -20t20.5 -74v-705q0 -191 -105.5 -306t-275.5 -115q-93 0 -152 23t-59 59zM84 1075 q0 53 58.5 99.5t127.5 46.5q48 0 83.5 -28.5t35.5 -72.5q0 -57 -65 -101t-117 -44q-56 0 -89.5 29t-33.5 71z" />
<glyph unicode="k" horiz-adv-x="985" d="M53 1079q0 39 45 62l135 63q41 17 68 17q51 0 71.5 -20.5t20.5 -74.5v-338q96 70 211 70q104 0 179 -71t75 -173q0 -160 -123 -262l117 -190q27 -39 63 -60q52 -27 52 -59q0 -19 -12 -31t-31 -12h-314q-19 0 -31 12t-12 31q0 13 27 44t27 54q0 33 -70 131q-32 -4 -49 -4 q-60 0 -109 27v-119q0 -18 9.5 -33t19.5 -23t27 -18q51 -26 51 -59q0 -19 -12 -31t-31 -12h-334q-19 0 -31 12t-12 31q0 33 51 59q26 15 40.5 31.5t14.5 42.5v836q0 19 -20.5 25.5t-63.5 6.5q-19 0 -34 9.5t-15 25.5zM393 432q30 -21 50.5 -28t52.5 -7q65 0 106 52.5 t41 123.5q0 54 -33 94t-84 40q-26 0 -53 -12t-41 -23t-39 -33v-207z" />
<glyph unicode="l" horiz-adv-x="518" d="M37 1079q0 39 45 62l135 63q41 17 68 17q51 0 71.5 -20.5t20.5 -74.5v-950q0 -26 14.5 -42.5t40.5 -31.5q51 -26 51 -59q0 -19 -12 -31t-31 -12h-334q-19 0 -31 12t-12 31q0 32 52 59q26 15 40.5 31.5t14.5 42.5v836q0 19 -20.5 25.5t-63.5 6.5q-19 0 -34 9.5t-15 25.5z " />
<glyph unicode="m" horiz-adv-x="1476" d="M70 725q0 14 11 29t23 24l11 8l133 68q24 12 69 12q78 0 107 -78q56 39 102.5 59.5t104.5 20.5q119 0 217 -110q115 104 256 104q91 0 163 -65.5t72 -143.5v-477q0 -18 9.5 -33t19.5 -23t27 -18q51 -26 51 -59q0 -19 -12 -31t-31 -12h-334q-19 0 -31 12t-12 31 q0 33 51 59q17 10 27 18t19.5 23t9.5 33v404q0 49 -32 89t-81 40q-58 0 -100.5 -38.5t-42.5 -95.5v-399q0 -26 14.5 -42.5t40.5 -31.5q51 -26 51 -59q0 -19 -12 -31t-31 -12h-334q-19 0 -31 12t-12 31q0 33 51 59q17 10 27 18t19.5 23t9.5 33v406q0 53 -33 89t-82 36 q-55 0 -100 -43.5t-45 -88.5v-399q0 -26 14.5 -42.5t40.5 -31.5q51 -26 51 -59q0 -19 -12 -31t-31 -12h-334q-19 0 -31 12t-12 31q0 33 51 59q17 10 27 18t19.5 23t9.5 33v481q-1 10 -8.5 16.5t-22 9t-25 3t-28.5 0.5q-20 0 -34.5 10.5t-14.5 28.5z" />
<glyph unicode="n" d="M55 725q0 14 11.5 29t22.5 24l11 8l133 68q24 12 70 12q78 0 107 -78q56 40 102 60t104 20q115 0 185.5 -79t70.5 -214v-399q0 -18 9.5 -33t19.5 -23t27 -18q51 -26 51 -59q0 -19 -12 -31t-31 -12h-334q-19 0 -31 12t-12 31q0 33 51 59q17 10 27 18t19.5 23t9.5 33v406 q0 52 -36 88.5t-89 36.5q-55 0 -100.5 -43.5t-45.5 -88.5v-399q0 -18 9.5 -33t19.5 -23t27 -18q51 -26 51 -59q0 -19 -12 -31t-31 -12h-334q-19 0 -31 12t-12 31q0 33 51 59q26 15 40.5 31.5t14.5 42.5v481q-1 10 -8.5 16.5t-22 9t-25 3t-28.5 0.5q-20 0 -34.5 10.5 t-14.5 28.5z" />
<glyph unicode="o" horiz-adv-x="962" d="M47 436q0 88 36.5 171t97 144t143 97.5t170.5 36.5q167 0 293 -134.5t126 -314.5q0 -183 -121 -315.5t-298 -132.5q-197 0 -322 131.5t-125 316.5zM272 508q0 -74 11.5 -137.5t38 -123t79 -94t125.5 -34.5q47 0 82 27.5t53 73t26.5 95t8.5 103.5q0 79 -28 154.5 t-80 126.5t-115 51q-89 0 -145 -72.5t-56 -169.5z" />
<glyph unicode="p" horiz-adv-x="970" d="M51 723q0 39 45 61l135 64q41 16 68 16q47 0 68 -17.5t24 -60.5q88 88 211 88q101 0 180 -60.5t119.5 -154.5t40.5 -200q0 -91 -28 -176.5t-78 -152.5t-125.5 -107.5t-163.5 -40.5t-156 55v-217q0 -26 14.5 -42.5t40.5 -31.5q52 -27 52 -59q0 -19 -12 -31t-31 -12h-334 q-19 0 -31 12t-12 31q0 33 51 59q26 15 40.5 31.5t14.5 42.5v835q0 33 -84 33q-19 0 -34 9.5t-15 25.5zM391 238q0 -43 41.5 -83t93.5 -40q56 0 96.5 31.5t62 85t31 110.5t9.5 121q0 65 -16.5 121t-56.5 96.5t-97 40.5q-63 0 -113.5 -47t-50.5 -101v-335z" />
<glyph unicode="q" horiz-adv-x="925" d="M29 375q0 96 29.5 187t82.5 162t132.5 114t172.5 43q53 0 104 -28t81 -58q71 77 125 77q23 0 39 -12t16 -33q0 -18 -22.5 -71.5t-22.5 -81.5v-854q0 -26 14.5 -42.5t40.5 -31.5q51 -26 51 -59q0 -19 -12 -31t-31 -12h-333q-19 0 -31 12t-12 31q0 33 51 59 q26 15 40.5 31.5t14.5 42.5v237q-34 -28 -90 -49.5t-100 -21.5q-88 0 -155 32t-106.5 87.5t-59 123.5t-19.5 146zM248 438q0 -55 9 -105t28 -95.5t55 -73t84 -27.5q59 0 97 45.5t38 110.5v311q0 64 -29 101.5t-81 37.5q-68 0 -115 -47.5t-66.5 -114.5t-19.5 -143z" />
<glyph unicode="r" horiz-adv-x="778" d="M51 725q0 39 45 61l135 64q41 16 68 16q51 0 71.5 -20t20.5 -74v-53q29 31 46 47.5t49.5 42t67 37.5t71.5 12q52 0 88.5 -37t36.5 -90q0 -43 -29.5 -74.5t-71.5 -31.5q-27 0 -66 23.5t-61 23.5q-52 0 -91.5 -73.5t-39.5 -141.5v-281q0 -26 14.5 -42.5t40.5 -31.5 q52 -27 52 -59q0 -19 -12 -31t-31 -12h-334q-19 0 -31 12t-12 31q0 33 51 59q26 15 40.5 31.5t14.5 42.5v481q0 33 -84 33q-19 0 -34 9.5t-15 25.5z" />
<glyph unicode="s" horiz-adv-x="778" d="M45 154q0 51 29 83.5t76 32.5q36 0 58 -29t30 -73q8 -37 45.5 -59.5t99.5 -22.5q50 0 88.5 28.5t38.5 73.5q0 23 -12.5 46t-42 49.5t-52 44.5t-69.5 51.5t-68 48.5q-79 61 -123.5 121.5t-44.5 136.5q0 62 47.5 111t116.5 72.5t144 23.5q64 0 124 -18t102 -57t42 -89 q0 -39 -25.5 -67.5t-60.5 -28.5q-32 0 -56 17t-24 46q0 35 -21 58.5t-53 23.5q-37 0 -66.5 -16t-29.5 -45q0 -24 11.5 -46t39 -47t47.5 -40.5t62 -44.5q45 -32 67.5 -49t60 -50.5t56.5 -60.5t34 -64.5t15 -76.5q0 -85 -57 -147t-140 -90t-176 -28q-72 0 -143.5 22.5 t-120.5 65t-49 93.5z" />
<glyph unicode="t" horiz-adv-x="577" d="M23 799q0 18 10.5 33.5t25.5 21.5q60 27 97 75.5t82 151.5q18 41 55 41q22 0 36.5 -14.5t14.5 -36.5v-213h111q25 0 42 -17t17 -42t-17 -42.5t-42 -17.5h-111v-508q0 -47 19 -75.5t55 -28.5q18 0 45 2t45 2q17 0 30 -13.5t13 -27.5q0 -37 -35 -62.5t-82 -35.5t-98 -10 q-81 0 -135 53.5t-54 140.5v563h-65q-25 0 -42 17.5t-17 42.5z" />
<glyph unicode="u" d="M41 729q0 39 45 62l135 63q41 16 68 16q51 0 71.5 -20t20.5 -74v-465q0 -71 40.5 -117.5t104.5 -46.5q54 0 97 42.5t43 89.5v383q0 19 -20.5 25.5t-63.5 6.5q-19 0 -34.5 9.5t-15.5 25.5q0 39 46 62l135 63q40 16 67 16q52 0 72 -20t20 -74v-600q0 -18 9.5 -33t19.5 -23 t27 -18q51 -26 51 -59q0 -19 -12 -31t-31 -12h-205q-20 0 -39 21t-26 57q-42 -42 -106 -73.5t-134 -31.5q-106 0 -179 78.5t-73 188.5v422q0 19 -20.5 25.5t-63.5 6.5q-19 0 -34 9.5t-15 25.5z" />
<glyph unicode="v" horiz-adv-x="901" d="M31 815q0 19 12 31t31 12h301q19 0 31 -12t12 -31q0 -15 -21 -36t-42 -43.5t-21 -41.5q0 -90 28 -202.5t63.5 -188.5t57.5 -76q20 0 54.5 77t62 184t27.5 182q0 26 -13 49t-28 36.5t-28 29.5t-13 30q0 19 12 31t31 12h241q19 0 31 -12t12 -31q0 -29 -51 -59 q-16 -10 -32.5 -31t-22.5 -43q-77 -283 -104 -364q-99 -298 -208 -317q-8 -1 -16 -1q-30 0 -58 17t-52.5 51.5t-45.5 73t-41 96.5t-35 105t-32 115t-27 111.5t-24 108.5q-11 47 -41 70q-18 14 -25 20t-16.5 20t-9.5 27z" />
<glyph unicode="w" horiz-adv-x="1374" d="M41 815q0 19 12 31t31 12h309q19 0 31 -12t12 -31q0 -16 -20.5 -36t-41 -43.5t-20.5 -47.5q0 -91 24.5 -203.5t58.5 -189t59 -76.5q27 0 58 74.5t52 182t21 196.5q0 23 -15 45t-32.5 36t-32.5 31t-15 31q0 19 12 31t31 12h291q19 0 31 -12t12 -31q0 -13 -15 -29.5 t-33 -30.5t-33 -36t-15 -45q0 -92 19.5 -198t52.5 -181.5t65 -75.5q21 0 54.5 76.5t59.5 191t26 205.5q0 20 -13.5 37.5t-29.5 28.5t-29.5 26t-13.5 31q0 19 12 31t31 12h243q19 0 31 -12t12 -31q0 -33 -51 -59q-52 -31 -61 -74q-16 -81 -31.5 -147.5t-39 -152.5t-50.5 -151 t-58.5 -123.5t-71 -90t-81.5 -31.5q-15 0 -29.5 6t-28.5 19t-25 26.5t-23.5 37t-21.5 40t-21 46.5t-18.5 46t-18.5 48.5t-17 45.5q-46 -116 -117 -215.5t-127 -99.5q-147 0 -307 716q-3 15 -27 34t-45.5 39.5t-21.5 39.5z" />
<glyph unicode="x" horiz-adv-x="987" d="M68 43q0 33 51 59q18 11 24.5 15t16.5 14.5t20 26.5l180 311l-163 256q-6 9 -28 24t-39 31.5t-17 34.5q0 19 12 31t31 12h282q19 0 31 -12t12 -31q0 -20 -20.5 -38.5t-20.5 -28.5q0 -28 17 -54l73 -116l84 120q1 3 6 15t5 20q0 18 -20.5 43t-20.5 39q0 19 12 31t31 12 h211q19 0 31 -12t12 -31q0 -32 -52 -59q-5 -3 -10 -7t-8.5 -7t-8.5 -9t-7.5 -8.5t-8.5 -10.5t-7.5 -10.5t-8 -12t-8.5 -11.5l-154 -221l183 -283q12 -18 45.5 -43t58.5 -47.5t25 -42.5q0 -19 -12 -31t-31 -12h-308q-19 0 -31 12t-12 31q0 20 22.5 44t22.5 42q0 6 -2 11.5 t-6 12t-6 11.5l-117 182l-94 -162q-12 -23 -12 -37q0 -24 28.5 -53.5t28.5 -50.5q0 -19 -12 -31t-31 -12h-237q-19 0 -31 12t-12 31z" />
<glyph unicode="y" horiz-adv-x="921" d="M51 815q0 19 12 31t31 12h277q19 0 31 -12t12 -31q0 -22 -34 -50t-34 -52q0 -107 56.5 -270.5t121.5 -247.5q135 264 135 512q0 28 -35.5 62t-35.5 46q0 19 12 31t31 12h231q19 0 31 -12t12 -31q0 -13 -10.5 -27t-31 -35.5t-32.5 -37.5q-18 -24 -43.5 -129t-67 -250.5 t-95.5 -251.5q-115 -227 -229.5 -344t-192.5 -117q-34 0 -59 23.5t-25 56.5q0 35 22.5 58.5t58.5 40.5t75.5 37t80 61t64.5 100q-88 138 -145 258t-77 193t-31.5 131t-24.5 98t-40 68q-6 7 -22 20.5t-22.5 23.5t-6.5 23z" />
<glyph unicode="z" horiz-adv-x="845" d="M53 96q0 48 27 82l377 484q12 18 12 34q0 25 -35 25h-108q-42 0 -77 -22t-62.5 -44t-51.5 -22q-15 0 -25 11t-10 26q0 54 54.5 121t95.5 67h420q36 0 66 -20.5t30 -53.5q0 -55 -31 -90l-377 -479q-3 -4 -10.5 -11.5t-11 -13.5t-2.5 -14q4 -33 33 -33h211q38 0 71 22 t56 44t36 22q21 0 33 -16t12 -39q0 -31 -54.5 -103.5t-96.5 -72.5h-471q-55 0 -83 26t-28 70z" />
<glyph unicode="{" horiz-adv-x="530" d="M20 561q51 0 87 47t36 113v467q0 51 36 87t87 36h164q26 0 44 -18t18 -44t-18 -43.5t-44 -17.5h-61q-26 0 -44 -18t-18 -44v-405q0 -65 -38.5 -112.5t-90.5 -47.5q52 0 90.5 -47.5t38.5 -112.5v-405q0 -26 18 -44t44 -18h65q26 0 44 -17.5t18 -43.5t-18 -43.5t-44 -17.5 h-162q-51 0 -86.5 35.5t-35.5 86.5v467q0 65 -39 112.5t-91 47.5z" />
<glyph unicode="|" horiz-adv-x="294" d="M70 -236v1485h147v-1485h-147z" />
<glyph unicode="}" horiz-adv-x="528" d="M33 -127q0 26 17.5 43.5t43.5 17.5h66q26 0 43.5 18t17.5 44v405q0 65 38.5 112.5t90.5 47.5q-52 0 -90.5 47.5t-38.5 112.5v405q0 26 -17.5 44t-43.5 18h-62q-26 0 -43.5 17.5t-17.5 43.5t17.5 44t43.5 18h164q51 0 87 -36t36 -87v-467q0 -66 36 -113t87 -47 q-52 0 -90.5 -47.5t-38.5 -112.5v-467q0 -51 -36 -86.5t-87 -35.5h-162q-26 0 -43.5 17.5t-17.5 43.5z" />
<glyph unicode="~" horiz-adv-x="1558" d="M49 569q0 88 60.5 152.5t147.5 93.5t185 29q89 0 180.5 -31.5t166.5 -76t145.5 -89.5t141.5 -76.5t130 -31.5q39 0 61.5 47.5t22.5 101.5q0 46 33.5 76.5t81.5 30.5q42 0 72 -31t30 -74q0 -64 -34 -117t-88.5 -85.5t-118 -50t-125.5 -17.5q-101 0 -203 32t-182 78 t-151 91.5t-135.5 77.5t-111.5 32q-96 0 -96 -153q0 -48 -33 -79.5t-75 -31.5q-43 0 -74 30t-31 72z" />
<glyph unicode="&#xa1;" horiz-adv-x="385" d="M55 735q0 66 56 108t129 42q42 0 73 -24t31 -62q0 -68 -57 -111t-131 -43q-41 0 -71 25.5t-30 64.5zM68 -279q0 54 3 186t19.5 340.5t42.5 262.5q18 41 51 41l2 -2q25 0 43.5 -11.5t18.5 -33.5q0 -24 -1 -60t-1 -59q0 -121 34.5 -315t34.5 -224q0 -31 -35.5 -78.5 t-78 -81.5t-62.5 -34q-28 0 -49.5 19t-21.5 50z" />
<glyph unicode="&#xa2;" horiz-adv-x="722" d="M16 528q0 156 93 279.5t237 155.5v219q0 22 14.5 36.5t36.5 14.5t37 -14.5t15 -36.5v-211q96 -6 173.5 -58t77.5 -120q0 -55 -22.5 -92t-65.5 -37q-26 0 -45 5.5t-29.5 11t-17.5 20.5t-8.5 21t-4 27t-3.5 25q-7 58 -55 72v-615q91 -34 217 -34q18 0 29.5 -10t11.5 -27 q0 -43 -73 -65.5t-159 -22.5h-26v-359q0 -22 -15 -36.5t-37 -14.5t-36.5 14.5t-14.5 36.5v377q-144 42 -237 163t-93 275zM231 602q0 -209 115 -309v549q-53 -24 -84 -93t-31 -147z" />
<glyph unicode="&#xa3;" horiz-adv-x="978" d="M63 692q0 22 15 36.5t37 14.5h102q-55 125 -55 222q0 86 51.5 153t131 101t169.5 34q87 0 166 -32t130.5 -94.5t51.5 -141.5q0 -52 -30 -89.5t-78 -37.5q-90 0 -90 121q0 17 -2 34t-11 40t-24 40t-44 29.5t-67 12.5q-68 0 -109.5 -44t-41.5 -124q0 -23 9.5 -53 t19.5 -50.5t31 -61t30 -59.5h186q22 0 36.5 -14.5t14.5 -36.5t-14.5 -36.5t-36.5 -14.5h-147q10 -45 10 -84q0 -31 -4.5 -61t-9.5 -52.5t-19.5 -52t-21.5 -45t-28.5 -47t-29 -41.5t-34.5 -45.5t-33 -44.5q112 55 186 55q48 0 88 -20t77.5 -40t78.5 -20q24 0 59.5 12.5 t58.5 12.5q18 0 29.5 -14.5t11.5 -34.5q0 -48 -69.5 -98t-143.5 -50q-48 0 -117.5 39t-117.5 39q-51 0 -129 -24.5t-129 -24.5q-36 0 -64 19t-28 51q0 27 20 59.5t48.5 66t57 71.5t48.5 89t20 105q0 77 -45 180h-149q-22 0 -37 14.5t-15 36.5z" />
<glyph unicode="&#xa5;" horiz-adv-x="1101" d="M35 1139q0 18 14 30.5t33 12.5h309q19 0 31 -12t12 -31q0 -24 -29.5 -49.5t-29.5 -40.5q0 -13 4.5 -29.5t8.5 -26.5l5 -10l187 -328l153 285q37 74 37 92q0 22 -34 54.5t-34 52.5q0 18 14.5 30.5t33.5 12.5h274q19 0 31 -12t12 -31q0 -17 -17.5 -34t-40 -30t-48.5 -34.5 t-39 -43.5l-209 -383h184q26 0 43.5 -17.5t17.5 -43.5t-17.5 -43.5t-43.5 -17.5h-242v-101h242q26 0 43.5 -17.5t17.5 -43.5t-17.5 -44t-43.5 -18h-242v-92q0 -18 9.5 -33t19.5 -23t27 -18q51 -26 51 -59q0 -19 -12 -31t-31 -12h-336q-19 0 -31 12t-12 31q0 33 51 59 q26 15 40.5 31.5t14.5 42.5v92h-249q-26 0 -44 18t-18 44t18 43.5t44 17.5h249v101h-249q-26 0 -44 17.5t-18 43.5t18 43.5t44 17.5h182l-238 406q-24 41 -55 59q-51 26 -51 60z" />
<glyph unicode="&#xa8;" horiz-adv-x="657" d="M61 739q0 37 29.5 61.5t69.5 24.5q36 0 62 -22.5t26 -57.5q0 -38 -24 -65t-60 -27q-40 0 -71.5 24.5t-31.5 61.5zM408 741q0 37 29 61.5t69 24.5q36 0 62 -22.5t26 -56.5q0 -38 -24 -65.5t-60 -27.5q-40 0 -71 24.5t-31 61.5z" />
<glyph unicode="&#xab;" horiz-adv-x="733" d="M18 504q0 24 30.5 67.5t86 110.5t82.5 106q16 26 64 29h47q4 -3 13 -5.5t14 -6t5 -10.5q0 -20 -87 -132t-87 -141q0 -26 29 -76t63.5 -96t63.5 -89t29 -56q0 -29 -45 -29h-68q-25 0 -41 14q-27 43 -82.5 117t-86 122.5t-30.5 74.5zM319 504q0 24 30.5 67.5t86 110.5 t82.5 106q16 26 64 29h47q4 -3 13 -5.5t14.5 -6t5.5 -10.5q0 -20 -87.5 -132t-87.5 -141q0 -33 46.5 -103.5t92.5 -134t46 -79.5q0 -29 -45 -29h-68q-25 0 -41 14q-27 43 -82.5 117t-86 122.5t-30.5 74.5z" />
<glyph unicode="&#xad;" horiz-adv-x="733" d="M66 375q0 25 17 42t42 17h481q25 0 42.5 -17t17.5 -42t-17.5 -42.5t-42.5 -17.5h-481q-25 0 -42 17.5t-17 42.5z" />
<glyph unicode="&#xb4;" horiz-adv-x="278" d="M25 889q0 8 4 16l125 205q10 14 24 14h47q12 0 21.5 -9t9.5 -21q0 -11 -6 -17l-123 -205q-11 -14 -27 -14h-45q-12 0 -21 9.5t-9 21.5z" />
<glyph unicode="&#xb8;" horiz-adv-x="376" d="M29 -299q0 15 11 25t26 10q12 0 36.5 -9.5t40.5 -9.5q28 0 47 19t19 47q0 19 -22 35t-44 28.5t-22 24.5l22 139l95 -18l-17 -82q30 -13 46 -21t36 -22t28.5 -31.5t8.5 -40.5q0 -70 -55 -116t-129 -46q-43 0 -85 21.5t-42 46.5z" />
<glyph unicode="&#xbb;" horiz-adv-x="733" d="M61 205q0 13 29 56t63.5 89t63.5 96t29 76q0 29 -87 141t-87 132q0 7 5 10.5t14 6t13 5.5h48q47 -3 63 -29q27 -39 82.5 -106t86 -110.5t30.5 -67.5q0 -26 -30.5 -74.5t-86 -122.5t-82.5 -117q-16 -14 -41 -14h-68q-45 0 -45 29zM362 205q0 16 46 79.5t92.5 134 t46.5 103.5q0 29 -87 141t-87 132q0 7 5.5 10.5t14.5 6t13 5.5h47q47 -3 63 -29q27 -39 82.5 -106t86 -110.5t30.5 -67.5q0 -26 -30.5 -74.5t-86 -122.5t-82.5 -117q-16 -14 -41 -14h-67q-46 0 -46 29z" />
<glyph unicode="&#xbf;" horiz-adv-x="710" d="M29 -41q0 136 139 234q19 13 53.5 34.5t53 34t35 29.5t20.5 33q31 141 35 190q2 24 17 39.5t38 15.5t39 -16t16 -39q0 -7 8.5 -103.5t8.5 -156.5q0 -21 -26.5 -46t-64 -51.5t-75 -57.5t-64 -77t-26.5 -98q0 -56 40 -95.5t95 -39.5q29 0 48.5 7.5t31 23.5t17 30t11.5 37 q14 61 28 79q21 28 64 28q44 0 74.5 -31t30.5 -74q0 -61 -48 -113t-121 -80t-149 -28q-133 0 -231 82.5t-98 208.5zM242 756q0 66 55.5 107.5t128.5 41.5q42 0 73 -24t31 -62q0 -68 -57 -110.5t-131 -42.5q-41 0 -70.5 25.5t-29.5 64.5z" />
<glyph unicode="&#xc0;" horiz-adv-x="1118" d="M27 45q0 4 1 8.5t4 9.5t6 9t8 9t9 8.5t11 9t10.5 8.5t12 9t11.5 9q42 33 70 119l260 805q14 47 52.5 92t90.5 45q49 0 87 -34.5t53 -78.5l264 -852q9 -28 13 -39.5t14 -30.5t24 -32q7 -6 21.5 -18t21 -18.5t13 -18.5t6.5 -25q0 -17 -13.5 -28t-36.5 -11h-319 q-51 0 -51 43q0 18 11.5 31t26 21t26 26t11.5 45q0 51 -9 95t-26.5 100t-25.5 94h-291l-71 -258q-5 -20 -5 -33q0 -26 14.5 -48.5t29 -39.5t14.5 -31q0 -45 -53 -45h-248q-23 0 -35 13t-12 32zM383 1532q0 12 9.5 21.5t21.5 9.5h59q14 0 25 -15l127 -205q4 -8 4 -16 q0 -12 -9.5 -21.5t-21.5 -9.5h-57q-16 0 -27 15l-125 205q-6 6 -6 16zM428 592h219l-88 305q-3 10 -14 10q-12 0 -15 -10z" />
<glyph unicode="&#xc1;" horiz-adv-x="1118" d="M27 45q0 4 1 8.5t4 9.5t6 9t8 9t9 8.5t11 9t10.5 8.5t12 9t11.5 9q42 33 70 119l260 805q14 47 52.5 92t90.5 45q49 0 87 -34.5t53 -78.5l264 -852q9 -28 13 -39.5t14 -30.5t24 -32q7 -6 21.5 -18t21 -18.5t13 -18.5t6.5 -25q0 -17 -13.5 -28t-36.5 -11h-319 q-51 0 -51 43q0 18 11.5 31t26 21t26 26t11.5 45q0 51 -9 95t-26.5 100t-25.5 94h-291l-71 -258q-5 -20 -5 -33q0 -26 14.5 -48.5t29 -39.5t14.5 -31q0 -45 -53 -45h-248q-23 0 -35 13t-12 32zM428 592h219l-88 305q-3 10 -14 10q-12 0 -15 -10zM500 1327q0 8 4 16l125 205 q11 15 24 15h47q12 0 21.5 -9.5t9.5 -21.5q0 -10 -6 -16l-123 -205q-11 -15 -27 -15h-45q-12 0 -21 9.5t-9 21.5z" />
<glyph unicode="&#xc2;" horiz-adv-x="1118" d="M27 45q0 4 1 8.5t4 9.5t6 9t8 9t9 8.5t11 9t10.5 8.5t12 9t11.5 9q42 33 70 119l260 805q14 47 52.5 92t90.5 45q49 0 87 -34.5t53 -78.5l264 -852q9 -28 13 -39.5t14 -30.5t24 -32q7 -6 21.5 -18t21 -18.5t13 -18.5t6.5 -25q0 -17 -13.5 -28t-36.5 -11h-319 q-51 0 -51 43q0 18 11.5 31t26 21t26 26t11.5 45q0 51 -9 95t-26.5 100t-25.5 94h-291l-71 -258q-5 -20 -5 -33q0 -26 14.5 -48.5t29 -39.5t14.5 -31q0 -45 -53 -45h-248q-23 0 -35 13t-12 32zM379 1327q0 8 4 16l113 181q10 14 24 14h117q15 0 25 -14l112 -181q4 -8 4 -16 q0 -12 -9 -21.5t-21 -9.5h-58q-15 0 -26 15l-91 149l-92 -149q-11 -15 -26 -15h-45q-12 0 -21.5 9.5t-9.5 21.5zM428 592h219l-88 305q-3 10 -14 10q-12 0 -15 -10z" />
<glyph unicode="&#xc3;" horiz-adv-x="1118" d="M27 45q0 4 1 8.5t4 9.5t6 9t8 9t9 8.5t11 9t10.5 8.5t12 9t11.5 9q42 33 70 119l260 805q14 47 52.5 92t90.5 45q49 0 87 -34.5t53 -78.5l264 -852q9 -28 13 -39.5t14 -30.5t24 -32q7 -6 21.5 -18t21 -18.5t13 -18.5t6.5 -25q0 -17 -13.5 -28t-36.5 -11h-319 q-51 0 -51 43q0 18 11.5 31t26 21t26 26t11.5 45q0 51 -9 95t-26.5 100t-25.5 94h-291l-71 -258q-5 -20 -5 -33q0 -26 14.5 -48.5t29 -39.5t14.5 -31q0 -45 -53 -45h-248q-23 0 -35 13t-12 32zM324 1339q0 23 50.5 63t98.5 40q41 0 100.5 -30t100.5 -30q20 0 48 16.5 t42 16.5q13 0 22 -9.5t9 -23.5q0 -37 -37 -74.5t-82 -37.5q-42 0 -105.5 30.5t-91.5 30.5q-21 0 -53 -17.5t-47 -17.5q-22 0 -38.5 12t-16.5 31zM428 592h219l-88 305q-3 10 -14 10q-12 0 -15 -10z" />
<glyph unicode="&#xc4;" horiz-adv-x="1118" d="M27 45q0 4 1 8.5t4 9.5t6 9t8 9t9 8.5t11 9t10.5 8.5t12 9t11.5 9q42 33 70 119l260 805q14 47 52.5 92t90.5 45q49 0 87 -34.5t53 -78.5l264 -852q9 -28 13 -39.5t14 -30.5t24 -32q7 -6 21.5 -18t21 -18.5t13 -18.5t6.5 -25q0 -17 -13.5 -28t-36.5 -11h-319 q-51 0 -51 43q0 18 11.5 31t26 21t26 26t11.5 45q0 51 -9 95t-26.5 100t-25.5 94h-291l-71 -258q-5 -20 -5 -33q0 -26 14.5 -48.5t29 -39.5t14.5 -31q0 -45 -53 -45h-248q-23 0 -35 13t-12 32zM309 1380q0 37 29.5 61.5t69.5 24.5q36 0 62 -22.5t26 -57.5q0 -38 -24 -65 t-60 -27q-40 0 -71.5 24.5t-31.5 61.5zM428 592h219l-88 305q-3 10 -14 10q-12 0 -15 -10zM655 1382q0 37 29.5 61.5t69.5 24.5q36 0 62 -22.5t26 -56.5q0 -38 -24 -65.5t-60 -27.5q-40 0 -71.5 24.5t-31.5 61.5z" />
<glyph unicode="&#xc5;" horiz-adv-x="1118" d="M27 45q0 4 1 8.5t4 9.5t6 9t8 9t9 8.5t11 9t10.5 8.5t12 9t11.5 9q42 33 70 119l260 805q14 47 52.5 92t90.5 45q49 0 87 -34.5t53 -78.5l264 -852q9 -28 13 -39.5t14 -30.5t24 -32q7 -6 21.5 -18t21 -18.5t13 -18.5t6.5 -25q0 -17 -13.5 -28t-36.5 -11h-319 q-51 0 -51 43q0 18 11.5 31t26 21t26 26t11.5 45q0 51 -9 95t-26.5 100t-25.5 94h-291l-71 -258q-5 -20 -5 -33q0 -26 14.5 -48.5t29 -39.5t14.5 -31q0 -45 -53 -45h-248q-23 0 -35 13t-12 32zM428 592h219l-88 305q-3 10 -14 10q-12 0 -15 -10zM442 1393q0 57 40 96t96 39 t95.5 -39t39.5 -96t-39 -96.5t-96 -39.5t-96.5 39.5t-39.5 96.5zM500 1393q0 -32 23 -55t55 -23t54.5 23t22.5 55t-22.5 54.5t-54.5 22.5t-55 -22.5t-23 -54.5z" />
<glyph unicode="&#xc6;" horiz-adv-x="1601" d="M27 43q0 33 51 59q21 12 55 49.5t47 63.5l412 819q27 53 77 100.5t107 47.5h561q65 0 105.5 -61t40.5 -138q0 -90 -49 -90q-17 0 -29.5 10.5t-32 40.5t-26.5 39q-55 74 -142 74h-127q-31 0 -57.5 -19t-26.5 -47v-291h197q18 0 33 9.5t23 19.5t18 27q26 51 59 51 q19 0 31 -12t12 -31v-256q0 -19 -12 -31t-31 -12q-33 0 -59 51q-15 26 -31.5 40.5t-42.5 14.5h-197v-340q0 -56 30.5 -80t94.5 -24h137q33 0 71.5 19.5t67.5 43t57 43t42 19.5q19 0 33 -11.5t14 -29.5q0 -49 -57.5 -130t-91.5 -81h-695q-19 0 -31 12t-12 31q0 32 52 59 q26 15 40.5 31.5t14.5 42.5v395h-232l-149 -323q-3 -7 -8.5 -18t-8.5 -17.5t-5.5 -16.5t-2.5 -20q0 -32 31 -77t31 -56q0 -19 -12 -31t-31 -12h-303q-19 0 -31 12t-12 31zM598 700h162v306z" />
<glyph unicode="&#xc7;" horiz-adv-x="909" d="M33 567q0 124 38.5 241t107 208.5t171.5 147t223 55.5q119 0 211.5 -62t92.5 -166q0 -41 -31.5 -68.5t-75.5 -27.5q-94 0 -117 106q-24 105 -110 105q-62 0 -114 -49.5t-84.5 -128t-50.5 -170t-18 -180.5q0 -86 17 -164t53 -146t100.5 -108.5t149.5 -40.5q46 0 108 17.5 t70 17.5q27 0 48.5 -14t21.5 -36q0 -39 -50 -71t-119.5 -48t-137.5 -16h-31l-12 -59q30 -13 46 -21t35.5 -22t28 -31.5t8.5 -40.5q0 -70 -55 -116t-129 -46q-43 0 -85 21.5t-42 46.5q0 15 11 25t26 10q12 0 37 -9.5t41 -9.5q28 0 46.5 19t18.5 47q0 19 -22 35t-44 28.5 t-22 24.5l19 115q-172 47 -275.5 209t-103.5 372z" />
<glyph unicode="&#xc8;" horiz-adv-x="999" d="M57 43q0 32 52 59q26 15 40.5 31.5t14.5 42.5v830q0 18 -9 33t-19 22.5t-27 17.5q-52 27 -52 60q0 19 12 31t31 12h641q65 0 105.5 -61t40.5 -138q0 -90 -49 -90q-17 0 -29.5 10.5t-32 40.5t-26.5 39q-55 74 -142 74h-127q-31 0 -57.5 -19t-26.5 -47v-291h197 q18 0 33 9.5t23 19.5t18 27q26 51 59 51q19 0 31 -12t12 -31v-256q0 -19 -12 -31t-31 -12q-33 0 -59 51q-15 26 -31.5 40.5t-42.5 14.5h-197v-340q0 -56 30.5 -80t94.5 -24h137q33 0 71.5 19.5t67.5 43t57 43t42 19.5q19 0 33 -11.5t14 -29.5q0 -49 -57.5 -130t-91.5 -81 h-695q-19 0 -31 12t-12 31zM330 1532q0 12 9 21.5t21 9.5h60q13 0 24 -15l127 -205q4 -8 4 -16q0 -12 -9 -21.5t-21 -9.5h-58q-15 0 -26 15l-125 205q-6 6 -6 16z" />
<glyph unicode="&#xc9;" horiz-adv-x="999" d="M57 43q0 32 52 59q26 15 40.5 31.5t14.5 42.5v830q0 18 -9 33t-19 22.5t-27 17.5q-52 27 -52 60q0 19 12 31t31 12h641q65 0 105.5 -61t40.5 -138q0 -90 -49 -90q-17 0 -29.5 10.5t-32 40.5t-26.5 39q-55 74 -142 74h-127q-31 0 -57.5 -19t-26.5 -47v-291h197 q18 0 33 9.5t23 19.5t18 27q26 51 59 51q19 0 31 -12t12 -31v-256q0 -19 -12 -31t-31 -12q-33 0 -59 51q-15 26 -31.5 40.5t-42.5 14.5h-197v-340q0 -56 30.5 -80t94.5 -24h137q33 0 71.5 19.5t67.5 43t57 43t42 19.5q19 0 33 -11.5t14 -29.5q0 -49 -57.5 -130t-91.5 -81 h-695q-19 0 -31 12t-12 31zM387 1327q0 8 4 16l125 205q11 15 25 15h47q12 0 21 -9.5t9 -21.5q0 -10 -6 -16l-123 -205q-11 -15 -26 -15h-45q-12 0 -21.5 9.5t-9.5 21.5z" />
<glyph unicode="&#xca;" horiz-adv-x="999" d="M57 43q0 32 52 59q26 15 40.5 31.5t14.5 42.5v830q0 18 -9 33t-19 22.5t-27 17.5q-52 27 -52 60q0 19 12 31t31 12h641q65 0 105.5 -61t40.5 -138q0 -90 -49 -90q-17 0 -29.5 10.5t-32 40.5t-26.5 39q-55 74 -142 74h-127q-31 0 -57.5 -19t-26.5 -47v-291h197 q18 0 33 9.5t23 19.5t18 27q26 51 59 51q19 0 31 -12t12 -31v-256q0 -19 -12 -31t-31 -12q-33 0 -59 51q-15 26 -31.5 40.5t-42.5 14.5h-197v-340q0 -56 30.5 -80t94.5 -24h137q33 0 71.5 19.5t67.5 43t57 43t42 19.5q19 0 33 -11.5t14 -29.5q0 -49 -57.5 -130t-91.5 -81 h-695q-19 0 -31 12t-12 31zM287 1327q0 8 4 16l112 181q10 14 25 14h117q13 0 24 -14l113 -181q4 -8 4 -16q0 -12 -9.5 -21.5t-21.5 -9.5h-57q-16 0 -27 15l-90 149l-92 -149q-11 -15 -27 -15h-45q-12 0 -21 9.5t-9 21.5z" />
<glyph unicode="&#xcb;" horiz-adv-x="999" d="M57 43q0 32 52 59q26 15 40.5 31.5t14.5 42.5v830q0 18 -9 33t-19 22.5t-27 17.5q-52 27 -52 60q0 19 12 31t31 12h641q65 0 105.5 -61t40.5 -138q0 -90 -49 -90q-17 0 -29.5 10.5t-32 40.5t-26.5 39q-55 74 -142 74h-127q-31 0 -57.5 -19t-26.5 -47v-291h197 q18 0 33 9.5t23 19.5t18 27q26 51 59 51q19 0 31 -12t12 -31v-256q0 -19 -12 -31t-31 -12q-33 0 -59 51q-15 26 -31.5 40.5t-42.5 14.5h-197v-340q0 -56 30.5 -80t94.5 -24h137q33 0 71.5 19.5t67.5 43t57 43t42 19.5q19 0 33 -11.5t14 -29.5q0 -49 -57.5 -130t-91.5 -81 h-695q-19 0 -31 12t-12 31zM231 1380q0 37 29.5 61.5t69.5 24.5q36 0 62 -22.5t26 -57.5q0 -38 -24 -65t-60 -27q-40 0 -71.5 24.5t-31.5 61.5zM578 1382q0 37 29 61.5t69 24.5q36 0 62 -22.5t26 -56.5q0 -38 -24 -65.5t-60 -27.5q-40 0 -71 24.5t-31 61.5z" />
<glyph unicode="&#xcc;" horiz-adv-x="530" d="M47 43q0 33 51 59q17 10 27 18t19.5 23t9.5 33v830q0 18 -9.5 33t-19 22t-27.5 18q-51 26 -51 60q0 18 14 30.5t33 12.5h344q19 0 31 -12t12 -31q0 -34 -51 -60q-17 -10 -27 -17.5t-19 -22.5t-9 -33v-830q0 -26 14.5 -42.5t40.5 -31.5q51 -26 51 -59q0 -19 -12 -31 t-31 -12h-348q-19 0 -31 12t-12 31zM102 1532q0 12 9.5 21.5t21.5 9.5h60q13 0 24 -15l127 -205q4 -8 4 -16q0 -12 -9.5 -21.5t-21.5 -9.5h-57q-16 0 -27 15l-124 205q-7 7 -7 16z" />
<glyph unicode="&#xcd;" horiz-adv-x="530" d="M47 43q0 33 51 59q17 10 27 18t19.5 23t9.5 33v830q0 18 -9.5 33t-19 22t-27.5 18q-51 26 -51 60q0 18 14 30.5t33 12.5h344q19 0 31 -12t12 -31q0 -34 -51 -60q-17 -10 -27 -17.5t-19 -22.5t-9 -33v-830q0 -26 14.5 -42.5t40.5 -31.5q51 -26 51 -59q0 -19 -12 -31 t-31 -12h-348q-19 0 -31 12t-12 31zM150 1327q0 8 4 16l125 205q11 15 24 15h47q12 0 21.5 -9.5t9.5 -21.5q0 -10 -6 -16l-123 -205q-11 -15 -27 -15h-45q-12 0 -21 9.5t-9 21.5z" />
<glyph unicode="&#xce;" horiz-adv-x="530" d="M47 43q0 33 51 59q17 10 27 18t19.5 23t9.5 33v830q0 18 -9.5 33t-19 22t-27.5 18q-51 26 -51 60q0 18 14 30.5t33 12.5h344q19 0 31 -12t12 -31q0 -34 -51 -60q-17 -10 -27 -17.5t-19 -22.5t-9 -33v-830q0 -26 14.5 -42.5t40.5 -31.5q51 -26 51 -59q0 -19 -12 -31 t-31 -12h-348q-19 0 -31 12t-12 31zM57 1327q0 8 4 16l113 181q10 14 25 14h116q15 0 25 -14l113 -181q4 -8 4 -16q0 -12 -9.5 -21.5t-21.5 -9.5h-57q-16 0 -27 15l-90 149l-92 -149q-11 -15 -27 -15h-45q-12 0 -21.5 9.5t-9.5 21.5z" />
<glyph unicode="&#xcf;" horiz-adv-x="530" d="M-4 1382q0 37 29 61.5t69 24.5q36 0 62 -22.5t26 -56.5q0 -38 -24 -65.5t-60 -27.5q-40 0 -71 24.5t-31 61.5zM47 43q0 33 51 59q17 10 27 18t19.5 23t9.5 33v830q0 18 -9.5 33t-19 22t-27.5 18q-51 26 -51 60q0 18 14 30.5t33 12.5h344q19 0 31 -12t12 -31 q0 -34 -51 -60q-17 -10 -27 -17.5t-19 -22.5t-9 -33v-830q0 -26 14.5 -42.5t40.5 -31.5q51 -26 51 -59q0 -19 -12 -31t-31 -12h-348q-19 0 -31 12t-12 31zM342 1384q0 37 29 61.5t69 24.5q36 0 62 -22.5t26 -56.5q0 -38 -24 -65.5t-60 -27.5q-40 0 -71 24.5t-31 61.5z" />
<glyph unicode="&#xd0;" horiz-adv-x="1120" d="M12 592q0 26 18 43.5t44 17.5h92v353q0 18 -9 33t-19 22.5t-27 17.5q-52 27 -52 60q0 19 12 31t31 12h439q69 0 140 -19.5t142 -64.5t125.5 -110t88.5 -164.5t34 -219.5q0 -112 -31.5 -211.5t-82 -169.5t-114.5 -121.5t-129.5 -76.5t-125.5 -25h-486q-19 0 -31 12t-12 31 q0 32 52 59q26 15 40.5 31.5t14.5 42.5v354h-92q-26 0 -44 18t-18 44zM399 231q0 -112 125 -112q76 0 135.5 44t94 115.5t52 154t17.5 169.5q0 130 -38 231.5t-116.5 162.5t-185.5 61q-29 0 -56.5 -19.5t-27.5 -38.5v-346h131q26 0 44 -17.5t18 -43.5t-18 -44t-44 -18h-131 v-299z" />
<glyph unicode="&#xd1;" horiz-adv-x="1099" d="M55 43q0 33 51 59q17 10 27 18t19.5 23t9.5 33v830q0 18 -9.5 33t-19 22t-27.5 18q-51 26 -51 60q0 19 12 31t31 12h191q56 0 83.5 -17.5t59.5 -62.5q75 -103 133 -199.5t134 -238t102 -187.5v529q0 18 -9.5 33t-19 22t-27.5 18q-51 26 -51 60q0 19 12 31t31 12h269 q19 0 31 -12t12 -31q0 -33 -52 -60q-17 -10 -27 -17.5t-19 -22.5t-9 -33v-891q-10 -17 -18.5 -52.5t-20.5 -55t-37 -19.5t-44 13t-40 36.5t-37 34.5q-20 42 -77.5 165t-87 183.5t-80 159t-98 179t-99.5 156.5v-739q0 -26 14.5 -42.5t40.5 -31.5q52 -27 52 -59q0 -19 -12 -31 t-31 -12h-269q-19 0 -31 12t-12 31zM309 1339q0 23 51 63t99 40q41 0 100 -30t100 -30q19 0 48 16.5t43 16.5q13 0 21.5 -9.5t8.5 -23.5q0 -37 -36.5 -74.5t-81.5 -37.5q-42 0 -105.5 30.5t-91.5 30.5q-21 0 -53 -17.5t-47 -17.5q-22 0 -39 12t-17 31z" />
<glyph unicode="&#xd2;" horiz-adv-x="1128" d="M47 596q0 118 37 230.5t102.5 200t164 141t212.5 53.5t212.5 -53.5t164 -141t102.5 -200t37 -230.5t-37 -230.5t-102.5 -200t-164 -141t-212.5 -53.5t-212.5 53.5t-164 141t-102.5 200t-37 230.5zM289 596q0 -72 7 -137t26 -132t49 -115.5t79 -79t113 -30.5t113.5 30.5 t79 79t49 115.5t26.5 132t7 137t-7 137t-26.5 132t-49 115.5t-79 79t-113.5 30.5t-113 -30.5t-79 -79t-49 -115.5t-26 -132t-7 -137zM383 1532q0 12 9.5 21.5t21.5 9.5h59q14 0 25 -15l127 -205q4 -8 4 -16q0 -12 -9.5 -21.5t-21.5 -9.5h-57q-16 0 -27 15l-125 205 q-6 6 -6 16z" />
<glyph unicode="&#xd3;" horiz-adv-x="1128" d="M47 596q0 118 37 230.5t102.5 200t164 141t212.5 53.5t212.5 -53.5t164 -141t102.5 -200t37 -230.5t-37 -230.5t-102.5 -200t-164 -141t-212.5 -53.5t-212.5 53.5t-164 141t-102.5 200t-37 230.5zM289 596q0 -72 7 -137t26 -132t49 -115.5t79 -79t113 -30.5t113.5 30.5 t79 79t49 115.5t26.5 132t7 137t-7 137t-26.5 132t-49 115.5t-79 79t-113.5 30.5t-113 -30.5t-79 -79t-49 -115.5t-26 -132t-7 -137zM455 1327q0 8 4 16l125 205q11 15 24 15h47q12 0 21.5 -9.5t9.5 -21.5q0 -10 -6 -16l-123 -205q-11 -15 -27 -15h-45q-12 0 -21 9.5 t-9 21.5z" />
<glyph unicode="&#xd4;" horiz-adv-x="1128" d="M47 596q0 118 37 230.5t102.5 200t164 141t212.5 53.5t212.5 -53.5t164 -141t102.5 -200t37 -230.5t-37 -230.5t-102.5 -200t-164 -141t-212.5 -53.5t-212.5 53.5t-164 141t-102.5 200t-37 230.5zM289 596q0 -72 7 -137t26 -132t49 -115.5t79 -79t113 -30.5t113.5 30.5 t79 79t49 115.5t26.5 132t7 137t-7 137t-26.5 132t-49 115.5t-79 79t-113.5 30.5t-113 -30.5t-79 -79t-49 -115.5t-26 -132t-7 -137zM369 1327q0 8 4 16l112 181q11 14 25 14h117q13 0 24 -14l113 -181q4 -8 4 -16q0 -12 -9.5 -21.5t-21.5 -9.5h-57q-16 0 -27 15l-90 149 l-92 -149q-11 -15 -27 -15h-45q-12 0 -21 9.5t-9 21.5z" />
<glyph unicode="&#xd5;" horiz-adv-x="1128" d="M47 596q0 118 37 230.5t102.5 200t164 141t212.5 53.5t212.5 -53.5t164 -141t102.5 -200t37 -230.5t-37 -230.5t-102.5 -200t-164 -141t-212.5 -53.5t-212.5 53.5t-164 141t-102.5 200t-37 230.5zM289 596q0 -72 7 -137t26 -132t49 -115.5t79 -79t113 -30.5t113.5 30.5 t79 79t49 115.5t26.5 132t7 137t-7 137t-26.5 132t-49 115.5t-79 79t-113.5 30.5t-113 -30.5t-79 -79t-49 -115.5t-26 -132t-7 -137zM342 1339q0 23 51 63t99 40q41 0 100 -30t100 -30q20 0 48 16.5t42 16.5q13 0 22 -9.5t9 -23.5q0 -37 -37 -74.5t-82 -37.5 q-42 0 -105 30.5t-91 30.5q-22 0 -54 -17.5t-47 -17.5q-22 0 -38.5 12t-16.5 31z" />
<glyph unicode="&#xd6;" horiz-adv-x="1128" d="M47 596q0 118 37 230.5t102.5 200t164 141t212.5 53.5t212.5 -53.5t164 -141t102.5 -200t37 -230.5t-37 -230.5t-102.5 -200t-164 -141t-212.5 -53.5t-212.5 53.5t-164 141t-102.5 200t-37 230.5zM289 596q0 -72 7 -137t26 -132t49 -115.5t79 -79t113 -30.5t113.5 30.5 t79 79t49 115.5t26.5 132t7 137t-7 137t-26.5 132t-49 115.5t-79 79t-113.5 30.5t-113 -30.5t-79 -79t-49 -115.5t-26 -132t-7 -137zM289 1380q0 37 29 61.5t69 24.5q36 0 62 -22.5t26 -57.5q0 -38 -24 -65t-60 -27q-40 0 -71 24.5t-31 61.5zM635 1382q0 37 29 61.5t69 24.5 q36 0 62 -22.5t26 -56.5q0 -38 -24 -65.5t-60 -27.5q-40 0 -71 24.5t-31 61.5z" />
<glyph unicode="&#xd8;" horiz-adv-x="1128" d="M47 596q0 118 37 230.5t102.5 200t164 141t212.5 53.5q139 0 258 -82l53 88q20 30 54 30q26 0 43.5 -17.5t17.5 -43.5q0 -18 -8 -31l-66 -108q78 -89 121 -210.5t43 -250.5q0 -118 -37 -230.5t-102.5 -200t-164 -141t-212.5 -53.5q-139 0 -254 78l-49 -80 q-20 -30 -53 -30q-26 0 -44 17.5t-18 43.5q0 16 9 31l61 100q-79 89 -123.5 211.5t-44.5 253.5zM289 596q0 -163 37 -281l413 686q-69 89 -176 89q-64 0 -113 -30.5t-79 -79t-49 -115.5t-26 -132t-7 -137zM391 186q68 -84 172 -84q64 0 113.5 30.5t79 79t49 115.5t26.5 132 t7 137q0 154 -35 274z" />
<glyph unicode="&#xd9;" horiz-adv-x="1062" d="M43 1139q0 18 14 30.5t33 12.5h334q19 0 31 -12t12 -31q0 -34 -51 -60q-18 -11 -27.5 -18t-19 -22t-9.5 -33v-633q0 -63 21 -121.5t71 -102t121 -43.5q100 0 152.5 74t54.5 187v632q0 26 -14.5 42.5t-40.5 31.5q-51 26 -51 60q0 18 14 30.5t33 12.5h254q19 0 31 -12 t12 -31q0 -34 -51 -60q-17 -10 -27 -18t-19.5 -23t-9.5 -33v-647q0 -82 -22.5 -151.5t-69 -127t-126.5 -90t-187 -32.5q-91 0 -162 37t-112 98t-61.5 132.5t-20.5 148.5v639q0 18 -9.5 33t-19 22t-27.5 18q-51 26 -51 60zM383 1532q0 12 9.5 21.5t21.5 9.5h59q14 0 25 -15 l127 -205q4 -8 4 -16q0 -12 -9.5 -21.5t-21.5 -9.5h-57q-16 0 -27 15l-125 205q-6 6 -6 16z" />
<glyph unicode="&#xda;" horiz-adv-x="1062" d="M43 1139q0 18 14 30.5t33 12.5h334q19 0 31 -12t12 -31q0 -34 -51 -60q-18 -11 -27.5 -18t-19 -22t-9.5 -33v-633q0 -63 21 -121.5t71 -102t121 -43.5q100 0 152.5 74t54.5 187v632q0 26 -14.5 42.5t-40.5 31.5q-51 26 -51 60q0 18 14 30.5t33 12.5h254q19 0 31 -12 t12 -31q0 -34 -51 -60q-17 -10 -27 -18t-19.5 -23t-9.5 -33v-647q0 -82 -22.5 -151.5t-69 -127t-126.5 -90t-187 -32.5q-91 0 -162 37t-112 98t-61.5 132.5t-20.5 148.5v639q0 18 -9.5 33t-19 22t-27.5 18q-51 26 -51 60zM430 1327q0 8 4 16l125 205q11 15 25 15h47 q12 0 21.5 -9.5t9.5 -21.5q0 -9 -7 -16l-123 -205q-11 -15 -26 -15h-45q-12 0 -21.5 9.5t-9.5 21.5z" />
<glyph unicode="&#xdb;" horiz-adv-x="1062" d="M43 1139q0 18 14 30.5t33 12.5h334q19 0 31 -12t12 -31q0 -34 -51 -60q-18 -11 -27.5 -18t-19 -22t-9.5 -33v-633q0 -63 21 -121.5t71 -102t121 -43.5q100 0 152.5 74t54.5 187v632q0 26 -14.5 42.5t-40.5 31.5q-51 26 -51 60q0 18 14 30.5t33 12.5h254q19 0 31 -12 t12 -31q0 -34 -51 -60q-17 -10 -27 -18t-19.5 -23t-9.5 -33v-647q0 -82 -22.5 -151.5t-69 -127t-126.5 -90t-187 -32.5q-91 0 -162 37t-112 98t-61.5 132.5t-20.5 148.5v639q0 18 -9.5 33t-19 22t-27.5 18q-51 26 -51 60zM352 1327q0 8 4 16l113 181q10 14 25 14h116 q14 0 25 -14l113 -181q4 -8 4 -16q0 -12 -9.5 -21.5t-21.5 -9.5h-57q-16 0 -27 15l-90 149l-92 -149q-11 -15 -27 -15h-45q-12 0 -21.5 9.5t-9.5 21.5z" />
<glyph unicode="&#xdc;" horiz-adv-x="1062" d="M43 1139q0 18 14 30.5t33 12.5h334q19 0 31 -12t12 -31q0 -34 -51 -60q-18 -11 -27.5 -18t-19 -22t-9.5 -33v-633q0 -63 21 -121.5t71 -102t121 -43.5q100 0 152.5 74t54.5 187v632q0 26 -14.5 42.5t-40.5 31.5q-51 26 -51 60q0 18 14 30.5t33 12.5h254q19 0 31 -12 t12 -31q0 -34 -51 -60q-17 -10 -27 -18t-19.5 -23t-9.5 -33v-647q0 -82 -22.5 -151.5t-69 -127t-126.5 -90t-187 -32.5q-91 0 -162 37t-112 98t-61.5 132.5t-20.5 148.5v639q0 18 -9.5 33t-19 22t-27.5 18q-51 26 -51 60zM272 1380q0 37 29.5 61.5t69.5 24.5q36 0 62 -22.5 t26 -57.5q0 -38 -24 -65t-60 -27q-40 0 -71.5 24.5t-31.5 61.5zM618 1382q0 37 29.5 61.5t69.5 24.5q36 0 62 -22.5t26 -56.5q0 -38 -24 -65.5t-60 -27.5q-40 0 -71.5 24.5t-31.5 61.5z" />
<glyph unicode="&#xdd;" horiz-adv-x="1091" d="M31 1139q0 18 14 30.5t33 12.5h309q19 0 31 -12t12 -31q0 -24 -29.5 -49.5t-29.5 -40.5q0 -13 4.5 -29.5t8.5 -26.5l5 -10l186 -328l154 285q37 74 37 92q0 22 -34 54.5t-34 52.5q0 18 14 30.5t33 12.5h275q19 0 31 -12t12 -31q0 -17 -17.5 -34t-40 -30t-48.5 -34.5 t-39 -43.5l-267 -489v-332q0 -18 9.5 -33t19.5 -23t27 -18q51 -26 51 -59q0 -19 -12 -31t-31 -12h-336q-19 0 -31 12t-12 31q0 33 51 59q26 15 40.5 31.5t14.5 42.5v322l-305 522q-24 41 -55 59q-51 26 -51 60zM455 1327q0 8 4 16l125 205q11 15 24 15h47q12 0 21.5 -9.5 t9.5 -21.5q0 -10 -6 -16l-123 -205q-11 -15 -27 -15h-45q-12 0 -21 9.5t-9 21.5z" />
<glyph unicode="&#xde;" horiz-adv-x="976" d="M47 1139q0 18 14 30.5t33 12.5h344q19 0 31 -12t12 -31q0 -34 -51 -60q-17 -10 -27 -17.5t-19 -22.5t-9 -33v-66h151q182 0 293 -99.5t111 -258.5q0 -144 -103 -243t-249 -99q-71 0 -179 43v-107q0 -18 9.5 -33t19.5 -23t27 -18q51 -26 51 -59q0 -19 -12 -31t-31 -12 h-361q-19 0 -31 12t-12 31q0 32 52 59q26 15 40.5 31.5t14.5 42.5l-12 830q0 18 -9.5 33t-19 22t-27.5 18q-51 26 -51 60zM399 430q68 -61 138 -61q81 0 134.5 63.5t53.5 149.5q0 108 -64 176.5t-186 68.5q-26 0 -51 -17t-25 -34v-346z" />
<glyph unicode="&#xdf;" horiz-adv-x="964" d="M43 776q0 25 17 42.5t42 17.5h60q-1 13 -9 58.5t-8 86.5q0 68 43 120.5t107.5 78.5t136.5 26q108 0 190.5 -51t82.5 -143q0 -43 -19.5 -85.5t-43 -68t-43 -45.5t-19.5 -25q0 -15 26.5 -42t80 -74.5t87.5 -83.5q154 -158 154 -291q0 -140 -80.5 -225.5t-206.5 -85.5 q-79 0 -145 41.5t-66 101.5q0 40 24 65t64 25q27 0 47.5 -18.5t32 -41t32 -41t46.5 -18.5q41 0 66.5 34t25.5 79q0 43 -17 85t-52 84t-64.5 72t-78 74.5t-69.5 65.5q-88 88 -88 143q0 20 14.5 39.5t35.5 38.5t42 40.5t35.5 52t14.5 65.5q0 54 -34 94.5t-85 40.5 q-47 0 -83 -25t-36 -67q0 -40 29.5 -98.5t29.5 -73.5v-801q0 -19 -12 -31t-31 -12h-221q-19 0 -31 12t-12 31q0 33 51 59q17 10 27 18t19.5 23t9.5 33v541h-60q-25 0 -42 17t-17 42z" />
<glyph unicode="&#xe0;" horiz-adv-x="892" d="M47 297q0 127 94.5 215t225.5 88q52 0 157 -27q0 83 -41.5 120.5t-111.5 37.5q-29 0 -77 -3t-77 -3q-27 0 -48.5 13.5t-21.5 35.5q0 24 25.5 41.5t67 26t84 12.5t88.5 4q167 0 250 -72.5t83 -210.5v-399q0 -18 9.5 -33t19.5 -23t27 -18q51 -26 51 -59q0 -19 -12 -31 t-31 -12h-207q-24 0 -34.5 18.5t-12.5 61.5q-34 -29 -58 -46t-63.5 -32.5t-79.5 -15.5q-127 0 -217 91.5t-90 219.5zM231 1253q0 12 9.5 21.5t21.5 9.5h60q14 0 24 -14l127 -205q4 -8 4 -16q0 -12 -9.5 -21.5t-21.5 -9.5h-57q-17 0 -27 14l-124 205q-7 7 -7 16zM270 303 q0 -64 42 -110t104 -46q41 0 74.5 33t33.5 64v166q-1 22 -31.5 34.5t-66.5 12.5q-65 0 -110.5 -45t-45.5 -109z" />
<glyph unicode="&#xe1;" horiz-adv-x="892" d="M47 297q0 127 94.5 215t225.5 88q52 0 157 -27q0 83 -41.5 120.5t-111.5 37.5q-29 0 -77 -3t-77 -3q-27 0 -48.5 13.5t-21.5 35.5q0 24 25.5 41.5t67 26t84 12.5t88.5 4q167 0 250 -72.5t83 -210.5v-399q0 -18 9.5 -33t19.5 -23t27 -18q51 -26 51 -59q0 -19 -12 -31 t-31 -12h-207q-24 0 -34.5 18.5t-12.5 61.5q-34 -29 -58 -46t-63.5 -32.5t-79.5 -15.5q-127 0 -217 91.5t-90 219.5zM270 303q0 -64 42 -110t104 -46q41 0 74.5 33t33.5 64v166q-1 22 -31.5 34.5t-66.5 12.5q-65 0 -110.5 -45t-45.5 -109zM342 1049q0 8 4 16l125 205 q11 14 25 14h47q12 0 21 -9.5t9 -21.5q0 -10 -6 -16l-123 -205q-10 -14 -26 -14h-45q-12 0 -21.5 9.5t-9.5 21.5z" />
<glyph unicode="&#xe2;" horiz-adv-x="892" d="M47 297q0 127 94.5 215t225.5 88q52 0 157 -27q0 83 -41.5 120.5t-111.5 37.5q-29 0 -77 -3t-77 -3q-27 0 -48.5 13.5t-21.5 35.5q0 24 25.5 41.5t67 26t84 12.5t88.5 4q167 0 250 -72.5t83 -210.5v-399q0 -18 9.5 -33t19.5 -23t27 -18q51 -26 51 -59q0 -19 -12 -31 t-31 -12h-207q-24 0 -34.5 18.5t-12.5 61.5q-34 -29 -58 -46t-63.5 -32.5t-79.5 -15.5q-127 0 -217 91.5t-90 219.5zM242 1049q0 8 4 16l112 180q11 15 25 15h117q13 0 24 -15l113 -180q4 -8 4 -16q0 -12 -9.5 -21.5t-21.5 -9.5h-57q-17 0 -27 14l-90 150l-92 -150 q-10 -14 -27 -14h-45q-12 0 -21 9.5t-9 21.5zM270 303q0 -64 42 -110t104 -46q41 0 74.5 33t33.5 64v166q-1 22 -31.5 34.5t-66.5 12.5q-65 0 -110.5 -45t-45.5 -109z" />
<glyph unicode="&#xe3;" horiz-adv-x="892" d="M47 297q0 127 94.5 215t225.5 88q52 0 157 -27q0 83 -41.5 120.5t-111.5 37.5q-29 0 -77 -3t-77 -3q-27 0 -48.5 13.5t-21.5 35.5q0 24 25.5 41.5t67 26t84 12.5t88.5 4q167 0 250 -72.5t83 -210.5v-399q0 -18 9.5 -33t19.5 -23t27 -18q51 -26 51 -59q0 -19 -12 -31 t-31 -12h-207q-24 0 -34.5 18.5t-12.5 61.5q-34 -29 -58 -46t-63.5 -32.5t-79.5 -15.5q-127 0 -217 91.5t-90 219.5zM211 1061q0 22 50.5 62t98.5 40q41 0 100.5 -29.5t100.5 -29.5q19 0 48 16.5t42 16.5t22 -9.5t9 -23.5q0 -37 -37 -75t-82 -38q-42 0 -105 31t-91 31 q-21 0 -53 -17.5t-48 -17.5q-22 0 -38.5 12t-16.5 31zM270 303q0 -64 42 -110t104 -46q41 0 74.5 33t33.5 64v166q-1 22 -31.5 34.5t-66.5 12.5q-65 0 -110.5 -45t-45.5 -109z" />
<glyph unicode="&#xe4;" horiz-adv-x="892" d="M47 297q0 127 94.5 215t225.5 88q52 0 157 -27q0 83 -41.5 120.5t-111.5 37.5q-29 0 -77 -3t-77 -3q-27 0 -48.5 13.5t-21.5 35.5q0 24 25.5 41.5t67 26t84 12.5t88.5 4q167 0 250 -72.5t83 -210.5v-399q0 -18 9.5 -33t19.5 -23t27 -18q51 -26 51 -59q0 -19 -12 -31 t-31 -12h-207q-24 0 -34.5 18.5t-12.5 61.5q-34 -29 -58 -46t-63.5 -32.5t-79.5 -15.5q-127 0 -217 91.5t-90 219.5zM168 1102q0 37 29 61.5t69 24.5q36 0 62 -22.5t26 -57.5q0 -38 -24 -65t-60 -27q-40 0 -71 24.5t-31 61.5zM270 303q0 -64 42 -110t104 -46q41 0 74.5 33 t33.5 64v166q-1 22 -31.5 34.5t-66.5 12.5q-65 0 -110.5 -45t-45.5 -109zM514 1104q0 37 29 61.5t69 24.5q36 0 62 -22.5t26 -57.5q0 -38 -24 -65t-60 -27q-40 0 -71 24.5t-31 61.5z" />
<glyph unicode="&#xe5;" horiz-adv-x="892" d="M47 297q0 127 94.5 215t225.5 88q52 0 157 -27q0 83 -41.5 120.5t-111.5 37.5q-29 0 -77 -3t-77 -3q-27 0 -48.5 13.5t-21.5 35.5q0 24 25.5 41.5t67 26t84 12.5t88.5 4q167 0 250 -72.5t83 -210.5v-399q0 -18 9.5 -33t19.5 -23t27 -18q51 -26 51 -59q0 -19 -12 -31 t-31 -12h-207q-24 0 -34.5 18.5t-12.5 61.5q-34 -29 -58 -46t-63.5 -32.5t-79.5 -15.5q-127 0 -217 91.5t-90 219.5zM270 303q0 -64 42 -110t104 -46q41 0 74.5 33t33.5 64v166q-1 22 -31.5 34.5t-66.5 12.5q-65 0 -110.5 -45t-45.5 -109zM315 1114q0 57 40 96t96 39 t95.5 -39t39.5 -96t-39 -96t-96 -39t-96.5 39t-39.5 96zM373 1114q0 -32 23 -55t55 -23t54.5 23t22.5 55t-22.5 55t-54.5 23t-55 -23t-23 -55z" />
<glyph unicode="&#xe6;" horiz-adv-x="1331" d="M53 297q0 127 94.5 215t225.5 88q52 0 157 -27q0 83 -41.5 120.5t-111.5 37.5q-29 0 -76.5 -3t-77.5 -3q-27 0 -48 13.5t-21 35.5q0 32 45.5 52t100 26t118.5 6q184 0 270 -92q113 102 264 102q110 0 193.5 -62.5t83.5 -162.5q0 -60 -26 -111t-68 -86t-100 -61.5 t-116 -41.5t-122 -24q36 -98 107 -152t171 -54q31 0 76 20.5t76 20.5q20 0 34.5 -10.5t14.5 -28.5q0 -51 -93.5 -97.5t-187.5 -46.5q-117 0 -204.5 34t-131.5 87q-51 -43 -133 -80t-166 -37q-129 0 -218 95t-89 227zM276 303q0 -72 47 -123t117 -51q49 0 95.5 24.5 t46.5 53.5q-50 120 -52 203q-1 22 -31.5 34.5t-66.5 12.5q-65 0 -110.5 -45t-45.5 -109zM762 541q0 -51 6 -97q44 4 88 16.5t85.5 34.5t67 58.5t25.5 81.5q0 44 -28 76t-70 32q-76 0 -125 -60.5t-49 -141.5z" />
<glyph unicode="&#xe7;" horiz-adv-x="835" d="M55 442q0 180 120 311.5t294 131.5q103 0 186.5 -49t83.5 -129q0 -51 -37 -87t-90 -36q-28 0 -46.5 8t-29.5 26t-15.5 30.5t-10.5 37.5q-9 39 -25 59.5t-53 20.5q-72 0 -111.5 -64.5t-39.5 -148.5q0 -80 23.5 -155t65.5 -135t107 -96t141 -36q24 0 60 6t59 6q17 0 29 -12 t12 -29q0 -45 -87 -80.5t-177 -35.5h-14v-39q38 -15 65 -41.5t27 -57.5q0 -57 -42 -93t-101 -36q-95 0 -95 50q0 22 43 22q20 0 31.5 1t27.5 4.5t23.5 13.5t7.5 26q0 47 -69 76v84q-157 33 -260 158t-103 288z" />
<glyph unicode="&#xe8;" horiz-adv-x="819" d="M45 442q0 113 52.5 211t146 156.5t205.5 58.5q110 0 193 -62.5t83 -162.5q0 -60 -26 -111t-68 -86t-100 -61.5t-116 -41.5t-122 -24q36 -98 107 -152t171 -54q31 0 76.5 20.5t75.5 20.5q20 0 34.5 -10.5t14.5 -28.5q0 -51 -93 -97.5t-187 -46.5q-103 0 -188 38 t-141 102.5t-87 149.5t-31 181zM246 1253q0 12 9 21.5t21 9.5h60q14 0 24 -14l127 -205q5 -10 5 -16q0 -12 -9.5 -21.5t-21.5 -9.5h-58q-15 0 -26 14l-125 205q-6 6 -6 16zM258 541q0 -51 6 -97q44 4 88 16.5t85.5 34.5t67 58.5t25.5 81.5q0 44 -28 76t-70 32 q-76 0 -125 -60.5t-49 -141.5z" />
<glyph unicode="&#xe9;" horiz-adv-x="819" d="M45 442q0 113 52.5 211t146 156.5t205.5 58.5q110 0 193 -62.5t83 -162.5q0 -60 -26 -111t-68 -86t-100 -61.5t-116 -41.5t-122 -24q36 -98 107 -152t171 -54q31 0 76.5 20.5t75.5 20.5q20 0 34.5 -10.5t14.5 -28.5q0 -51 -93 -97.5t-187 -46.5q-103 0 -188 38 t-141 102.5t-87 149.5t-31 181zM258 541q0 -51 6 -97q44 4 88 16.5t85.5 34.5t67 58.5t25.5 81.5q0 44 -28 76t-70 32q-76 0 -125 -60.5t-49 -141.5zM311 1049q0 8 4 16l125 205q10 14 25 14h47q12 0 21.5 -9.5t9.5 -21.5q0 -10 -6 -16l-123 -205q-10 -14 -27 -14h-45 q-12 0 -21.5 9.5t-9.5 21.5z" />
<glyph unicode="&#xea;" horiz-adv-x="819" d="M45 442q0 113 52.5 211t146 156.5t205.5 58.5q110 0 193 -62.5t83 -162.5q0 -60 -26 -111t-68 -86t-100 -61.5t-116 -41.5t-122 -24q36 -98 107 -152t171 -54q31 0 76.5 20.5t75.5 20.5q20 0 34.5 -10.5t14.5 -28.5q0 -51 -93 -97.5t-187 -46.5q-103 0 -188 38 t-141 102.5t-87 149.5t-31 181zM244 1049q0 8 4 16l112 180q11 15 25 15h117q13 0 24 -15l113 -180q4 -8 4 -16q0 -12 -9.5 -21.5t-21.5 -9.5h-57q-17 0 -27 14l-90 150l-92 -150q-11 -14 -27 -14h-45q-12 0 -21 9.5t-9 21.5zM258 541q0 -51 6 -97q44 4 88 16.5t85.5 34.5 t67 58.5t25.5 81.5q0 44 -28 76t-70 32q-76 0 -125 -60.5t-49 -141.5z" />
<glyph unicode="&#xeb;" horiz-adv-x="819" d="M45 442q0 113 52.5 211t146 156.5t205.5 58.5q110 0 193 -62.5t83 -162.5q0 -60 -26 -111t-68 -86t-100 -61.5t-116 -41.5t-122 -24q36 -98 107 -152t171 -54q31 0 76.5 20.5t75.5 20.5q20 0 34.5 -10.5t14.5 -28.5q0 -51 -93 -97.5t-187 -46.5q-103 0 -188 38 t-141 102.5t-87 149.5t-31 181zM145 1102q0 37 29.5 61.5t69.5 24.5q36 0 62 -22.5t26 -57.5q0 -38 -24 -65t-60 -27q-40 0 -71.5 24.5t-31.5 61.5zM258 541q0 -51 6 -97q44 4 88 16.5t85.5 34.5t67 58.5t25.5 81.5q0 44 -28 76t-70 32q-76 0 -125 -60.5t-49 -141.5z M492 1104q0 37 29 61.5t69 24.5q36 0 62 -22.5t26 -57.5q0 -38 -24 -65t-60 -27q-40 0 -71 24.5t-31 61.5z" />
<glyph unicode="&#xec;" horiz-adv-x="518" d="M39 721q0 42 45 61l135 64q41 16 68 16q51 0 71.5 -20t20.5 -74v-592q0 -26 14.5 -42.5t40.5 -31.5q51 -26 51 -59q0 -19 -12 -31t-31 -12h-333q-19 0 -31 12t-12 31q0 33 51 59q26 15 40.5 31.5t14.5 42.5v477q0 33 -84 33q-19 0 -34 9.5t-15 25.5zM80 1253 q0 12 9.5 21.5t21.5 9.5h59q14 0 25 -14l127 -205q4 -8 4 -16q0 -12 -9.5 -21.5t-21.5 -9.5h-57q-16 0 -27 14l-125 205q-6 6 -6 16z" />
<glyph unicode="&#xed;" horiz-adv-x="518" d="M39 721q0 42 45 61l135 64q41 16 68 16q51 0 71.5 -20t20.5 -74v-592q0 -26 14.5 -42.5t40.5 -31.5q51 -26 51 -59q0 -19 -12 -31t-31 -12h-333q-19 0 -31 12t-12 31q0 33 51 59q26 15 40.5 31.5t14.5 42.5v477q0 33 -84 33q-19 0 -34 9.5t-15 25.5zM133 1049q0 8 4 16 l125 205q10 14 25 14h47q12 0 21.5 -9.5t9.5 -21.5q0 -9 -7 -16l-122 -205q-11 -14 -27 -14h-45q-12 0 -21.5 9.5t-9.5 21.5z" />
<glyph unicode="&#xee;" horiz-adv-x="518" d="M39 721q0 42 45 61l135 64q41 16 68 16q51 0 71.5 -20t20.5 -74v-592q0 -26 14.5 -42.5t40.5 -31.5q51 -26 51 -59q0 -19 -12 -31t-31 -12h-333q-19 0 -31 12t-12 31q0 33 51 59q26 15 40.5 31.5t14.5 42.5v477q0 33 -84 33q-19 0 -34 9.5t-15 25.5zM49 1049q0 8 4 16 l113 180q11 15 24 15h117q14 0 25 -15l112 -180q5 -10 5 -16q0 -12 -9.5 -21.5t-21.5 -9.5h-58q-16 0 -26 14l-90 150l-92 -150q-11 -14 -27 -14h-45q-12 0 -21.5 9.5t-9.5 21.5z" />
<glyph unicode="&#xef;" horiz-adv-x="518" d="M-12 1102q0 37 29 61.5t69 24.5q36 0 62 -22.5t26 -57.5q0 -38 -24 -65t-60 -27q-40 0 -71 24.5t-31 61.5zM39 721q0 42 45 61l135 64q41 16 68 16q51 0 71.5 -20t20.5 -74v-592q0 -26 14.5 -42.5t40.5 -31.5q51 -26 51 -59q0 -19 -12 -31t-31 -12h-333q-19 0 -31 12 t-12 31q0 33 51 59q26 15 40.5 31.5t14.5 42.5v477q0 33 -84 33q-19 0 -34 9.5t-15 25.5zM334 1104q0 37 29 61.5t69 24.5q36 0 62 -22.5t26 -57.5q0 -38 -24 -65t-60 -27q-40 0 -71 24.5t-31 61.5z" />
<glyph unicode="&#xf0;" horiz-adv-x="962" d="M47 436q0 88 36.5 171t97 144t143 97.5t170.5 36.5q44 0 94 -13q-52 113 -131 195l-178 -104q-18 -9 -29 -9q-13 0 -27 16.5t-14 37.5q0 14 12 26l170 99q-82 76 -190 127q-11 6 -11 26q0 15 13 27t30 12q32 0 112 -39.5t153 -91.5l170 94q20 10 37 10t30 -14t13 -31 q0 -23 -23 -34l-152 -89q165 -150 252.5 -318.5t87.5 -375.5q0 -183 -121 -315.5t-298 -132.5q-197 0 -322 131.5t-125 316.5zM272 508q0 -74 11.5 -137.5t38 -123t79 -94t125.5 -34.5q47 0 82 27.5t53 73t26.5 95t8.5 103.5q0 79 -28 154.5t-80 126.5t-115 51 q-89 0 -145 -72.5t-56 -169.5z" />
<glyph unicode="&#xf1;" d="M55 725q0 14 11.5 29t22.5 24l11 8l133 68q24 12 70 12q78 0 107 -78q56 40 102 60t104 20q115 0 185.5 -79t70.5 -214v-399q0 -18 9.5 -33t19.5 -23t27 -18q51 -26 51 -59q0 -19 -12 -31t-31 -12h-334q-19 0 -31 12t-12 31q0 33 51 59q17 10 27 18t19.5 23t9.5 33v406 q0 52 -36 88.5t-89 36.5q-55 0 -100.5 -43.5t-45.5 -88.5v-399q0 -18 9.5 -33t19.5 -23t27 -18q51 -26 51 -59q0 -19 -12 -31t-31 -12h-334q-19 0 -31 12t-12 31q0 33 51 59q26 15 40.5 31.5t14.5 42.5v481q-1 10 -8.5 16.5t-22 9t-25 3t-28.5 0.5q-20 0 -34.5 10.5 t-14.5 28.5zM268 1061q0 22 51 62t99 40q41 0 100 -29.5t100 -29.5q20 0 49 16.5t42 16.5t21.5 -9.5t8.5 -23.5q0 -38 -36.5 -75.5t-81.5 -37.5q-42 0 -105.5 31t-91.5 31q-22 0 -53 -17.5t-47 -17.5q-22 0 -39 12t-17 31z" />
<glyph unicode="&#xf2;" horiz-adv-x="962" d="M47 436q0 88 36.5 171t97 144t143 97.5t170.5 36.5q167 0 293 -134.5t126 -314.5q0 -183 -121 -315.5t-298 -132.5q-197 0 -322 131.5t-125 316.5zM272 508q0 -74 11.5 -137.5t38 -123t79 -94t125.5 -34.5q47 0 82 27.5t53 73t26.5 95t8.5 103.5q0 79 -28 154.5 t-80 126.5t-115 51q-89 0 -145 -72.5t-56 -169.5zM336 1253q0 12 9.5 21.5t21.5 9.5h59q14 0 25 -14l127 -205q4 -8 4 -16q0 -12 -9.5 -21.5t-21.5 -9.5h-57q-16 0 -27 14l-125 205q-6 6 -6 16z" />
<glyph unicode="&#xf3;" horiz-adv-x="962" d="M47 436q0 88 36.5 171t97 144t143 97.5t170.5 36.5q167 0 293 -134.5t126 -314.5q0 -183 -121 -315.5t-298 -132.5q-197 0 -322 131.5t-125 316.5zM272 508q0 -74 11.5 -137.5t38 -123t79 -94t125.5 -34.5q47 0 82 27.5t53 73t26.5 95t8.5 103.5q0 79 -28 154.5 t-80 126.5t-115 51q-89 0 -145 -72.5t-56 -169.5zM408 1049q0 8 4 16l125 205q11 14 24 14h47q12 0 21.5 -9.5t9.5 -21.5q0 -10 -6 -16l-123 -205q-10 -14 -27 -14h-45q-12 0 -21 9.5t-9 21.5z" />
<glyph unicode="&#xf4;" horiz-adv-x="962" d="M47 436q0 88 36.5 171t97 144t143 97.5t170.5 36.5q167 0 293 -134.5t126 -314.5q0 -183 -121 -315.5t-298 -132.5q-197 0 -322 131.5t-125 316.5zM272 508q0 -74 11.5 -137.5t38 -123t79 -94t125.5 -34.5q47 0 82 27.5t53 73t26.5 95t8.5 103.5q0 79 -28 154.5 t-80 126.5t-115 51q-89 0 -145 -72.5t-56 -169.5zM293 1049q0 8 4 16l113 180q11 15 24 15h117q13 0 24 -15l113 -180q4 -8 4 -16q0 -12 -9 -21.5t-21 -9.5h-58q-16 0 -26 14l-91 150l-92 -150q-11 -14 -26 -14h-45q-12 0 -21.5 9.5t-9.5 21.5z" />
<glyph unicode="&#xf5;" horiz-adv-x="962" d="M47 436q0 88 36.5 171t97 144t143 97.5t170.5 36.5q167 0 293 -134.5t126 -314.5q0 -183 -121 -315.5t-298 -132.5q-197 0 -322 131.5t-125 316.5zM264 1061q0 22 51 62t99 40q41 0 100 -29.5t100 -29.5q20 0 49 16.5t42 16.5t21.5 -9.5t8.5 -23.5q0 -37 -37 -75t-82 -38 q-42 0 -105 31t-91 31q-22 0 -54 -17.5t-47 -17.5q-22 0 -38.5 12t-16.5 31zM272 508q0 -74 11.5 -137.5t38 -123t79 -94t125.5 -34.5q47 0 82 27.5t53 73t26.5 95t8.5 103.5q0 79 -28 154.5t-80 126.5t-115 51q-89 0 -145 -72.5t-56 -169.5z" />
<glyph unicode="&#xf6;" horiz-adv-x="962" d="M47 436q0 88 36.5 171t97 144t143 97.5t170.5 36.5q167 0 293 -134.5t126 -314.5q0 -183 -121 -315.5t-298 -132.5q-197 0 -322 131.5t-125 316.5zM205 1102q0 37 29 61.5t69 24.5q36 0 62 -22.5t26 -57.5q0 -38 -24 -65t-60 -27q-40 0 -71 24.5t-31 61.5zM272 508 q0 -74 11.5 -137.5t38 -123t79 -94t125.5 -34.5q47 0 82 27.5t53 73t26.5 95t8.5 103.5q0 79 -28 154.5t-80 126.5t-115 51q-89 0 -145 -72.5t-56 -169.5zM551 1104q0 37 29 61.5t69 24.5q36 0 62 -22.5t26 -57.5q0 -38 -24 -65t-60 -27q-40 0 -71 24.5t-31 61.5z" />
<glyph unicode="&#xf7;" horiz-adv-x="843" d="M12 532q0 26 18 44t44 18h696q26 0 43.5 -18t17.5 -44t-17.5 -43.5t-43.5 -17.5h-696q-26 0 -44 17.5t-18 43.5zM311 227q0 50 31.5 80.5t79.5 30.5t79 -30.5t31 -80.5t-31 -80t-79 -30t-79.5 30t-31.5 80zM311 854q0 50 31.5 80.5t79.5 30.5t79 -30.5t31 -80.5 t-31 -80.5t-79 -30.5t-79.5 30.5t-31.5 80.5z" />
<glyph unicode="&#xf8;" horiz-adv-x="960" d="M47 436q0 88 36.5 171t97 144t143 97.5t170.5 36.5q95 0 174 -43l34 51q18 27 52 27q26 0 43.5 -18t17.5 -44q0 -18 -10 -35l-37 -53q67 -64 106 -151.5t39 -182.5q0 -183 -121 -315.5t-298 -132.5q-115 0 -211 49l-47 -72q-17 -26 -52 -26q-26 0 -43.5 17.5t-17.5 43.5 q0 18 10 35l49 74q-135 132 -135 327zM272 508q0 -125 31 -217l277 416q-49 43 -107 43q-89 0 -145 -72.5t-56 -169.5zM375 174q58 -55 151 -55q47 0 82 27.5t53 73t26.5 95t8.5 103.5q0 98 -41 182z" />
<glyph unicode="&#xf9;" d="M41 729q0 39 45 62l135 63q41 16 68 16q51 0 71.5 -20t20.5 -74v-465q0 -71 40.5 -117.5t104.5 -46.5q54 0 97 42.5t43 89.5v383q0 19 -20.5 25.5t-63.5 6.5q-19 0 -34.5 9.5t-15.5 25.5q0 39 46 62l135 63q40 16 67 16q52 0 72 -20t20 -74v-600q0 -18 9.5 -33t19.5 -23 t27 -18q51 -26 51 -59q0 -19 -12 -31t-31 -12h-205q-20 0 -39 21t-26 57q-42 -42 -106 -73.5t-134 -31.5q-106 0 -179 78.5t-73 188.5v422q0 19 -20.5 25.5t-63.5 6.5q-19 0 -34 9.5t-15 25.5zM315 1253q0 12 9.5 21.5t21.5 9.5h60q13 0 24 -14l127 -205q4 -8 4 -16 q0 -12 -9.5 -21.5t-21.5 -9.5h-57q-17 0 -27 14l-124 205q-7 7 -7 16z" />
<glyph unicode="&#xfa;" d="M41 729q0 39 45 62l135 63q41 16 68 16q51 0 71.5 -20t20.5 -74v-465q0 -71 40.5 -117.5t104.5 -46.5q54 0 97 42.5t43 89.5v383q0 19 -20.5 25.5t-63.5 6.5q-19 0 -34.5 9.5t-15.5 25.5q0 39 46 62l135 63q40 16 67 16q52 0 72 -20t20 -74v-600q0 -18 9.5 -33t19.5 -23 t27 -18q51 -26 51 -59q0 -19 -12 -31t-31 -12h-205q-20 0 -39 21t-26 57q-42 -42 -106 -73.5t-134 -31.5q-106 0 -179 78.5t-73 188.5v422q0 19 -20.5 25.5t-63.5 6.5q-19 0 -34 9.5t-15 25.5zM371 1049q0 8 4 16l125 205q10 14 24 14h47q12 0 21.5 -9.5t9.5 -21.5 q0 -10 -6 -16l-123 -205q-11 -14 -27 -14h-45q-12 0 -21 9.5t-9 21.5z" />
<glyph unicode="&#xfb;" d="M41 729q0 39 45 62l135 63q41 16 68 16q51 0 71.5 -20t20.5 -74v-465q0 -71 40.5 -117.5t104.5 -46.5q54 0 97 42.5t43 89.5v383q0 19 -20.5 25.5t-63.5 6.5q-19 0 -34.5 9.5t-15.5 25.5q0 39 46 62l135 63q40 16 67 16q52 0 72 -20t20 -74v-600q0 -18 9.5 -33t19.5 -23 t27 -18q51 -26 51 -59q0 -19 -12 -31t-31 -12h-205q-20 0 -39 21t-26 57q-42 -42 -106 -73.5t-134 -31.5q-106 0 -179 78.5t-73 188.5v422q0 19 -20.5 25.5t-63.5 6.5q-19 0 -34 9.5t-15 25.5zM297 1049q0 8 4 16l113 180q11 15 24 15h117q14 0 25 -15l112 -180q4 -8 4 -16 q0 -12 -9 -21.5t-21 -9.5h-58q-16 0 -26 14l-90 150l-93 -150q-11 -14 -26 -14h-45q-12 0 -21.5 9.5t-9.5 21.5z" />
<glyph unicode="&#xfc;" d="M41 729q0 39 45 62l135 63q41 16 68 16q51 0 71.5 -20t20.5 -74v-465q0 -71 40.5 -117.5t104.5 -46.5q54 0 97 42.5t43 89.5v383q0 19 -20.5 25.5t-63.5 6.5q-19 0 -34.5 9.5t-15.5 25.5q0 39 46 62l135 63q40 16 67 16q52 0 72 -20t20 -74v-600q0 -18 9.5 -33t19.5 -23 t27 -18q51 -26 51 -59q0 -19 -12 -31t-31 -12h-205q-20 0 -39 21t-26 57q-42 -42 -106 -73.5t-134 -31.5q-106 0 -179 78.5t-73 188.5v422q0 19 -20.5 25.5t-63.5 6.5q-19 0 -34 9.5t-15 25.5zM231 1102q0 37 29.5 61.5t69.5 24.5q36 0 62 -22.5t26 -57.5q0 -38 -24 -65 t-60 -27q-40 0 -71.5 24.5t-31.5 61.5zM578 1104q0 37 29 61.5t69 24.5q36 0 62 -22.5t26 -57.5q0 -38 -24 -65t-60 -27q-40 0 -71 24.5t-31 61.5z" />
<glyph unicode="&#xfd;" horiz-adv-x="921" d="M51 815q0 19 12 31t31 12h277q19 0 31 -12t12 -31q0 -22 -34 -50t-34 -52q0 -107 56.5 -270.5t121.5 -247.5q135 264 135 512q0 28 -35.5 62t-35.5 46q0 19 12 31t31 12h231q19 0 31 -12t12 -31q0 -13 -10.5 -27t-31 -35.5t-32.5 -37.5q-18 -24 -43.5 -129t-67 -250.5 t-95.5 -251.5q-115 -227 -229.5 -344t-192.5 -117q-34 0 -59 23.5t-25 56.5q0 35 22.5 58.5t58.5 40.5t75.5 37t80 61t64.5 100q-88 138 -145 258t-77 193t-31.5 131t-24.5 98t-40 68q-6 7 -22 20.5t-22.5 23.5t-6.5 23zM403 1049q0 6 5 16l124 205q10 14 25 14h47 q12 0 21.5 -9.5t9.5 -21.5q0 -10 -6 -16l-123 -205q-10 -14 -27 -14h-45q-12 0 -21.5 9.5t-9.5 21.5z" />
<glyph unicode="&#xfe;" horiz-adv-x="1034" d="M37 1079q0 39 45 62l135 63q41 17 68 17q51 0 71.5 -20.5t20.5 -74.5v-288q96 47 192 47q82 0 159.5 -36.5t134.5 -97.5t91.5 -144t34.5 -171q0 -183 -121.5 -315.5t-298.5 -132.5q-153 0 -153 82q0 19 12 32t29 13q12 0 56 -6.5t77 -6.5q50 0 87.5 30t57 79t28.5 101 t9 106q0 79 -28 154.5t-80 126.5t-115 51q-58 0 -102 -31.5t-70 -85.5v-813q0 -26 14.5 -42.5t40.5 -31.5q51 -26 51 -59q0 -19 -12 -31t-31 -12h-334q-19 0 -31 12t-12 31q0 32 52 59q26 15 40.5 31.5t14.5 42.5v1192q0 19 -20.5 25.5t-63.5 6.5q-19 0 -34 9.5t-15 25.5z " />
<glyph unicode="&#xff;" horiz-adv-x="921" d="M51 815q0 19 12 31t31 12h277q19 0 31 -12t12 -31q0 -22 -34 -50t-34 -52q0 -107 56.5 -270.5t121.5 -247.5q135 264 135 512q0 28 -35.5 62t-35.5 46q0 19 12 31t31 12h231q19 0 31 -12t12 -31q0 -13 -10.5 -27t-31 -35.5t-32.5 -37.5q-18 -24 -43.5 -129t-67 -250.5 t-95.5 -251.5q-115 -227 -229.5 -344t-192.5 -117q-34 0 -59 23.5t-25 56.5q0 35 22.5 58.5t58.5 40.5t75.5 37t80 61t64.5 100q-88 138 -145 258t-77 193t-31.5 131t-24.5 98t-40 68q-6 7 -22 20.5t-22.5 23.5t-6.5 23zM236 1102q0 37 29 61.5t69 24.5q36 0 62 -22.5 t26 -57.5q0 -38 -24 -65t-60 -27q-40 0 -71 24.5t-31 61.5zM582 1104q0 37 29 61.5t69 24.5q36 0 62 -22.5t26 -57.5q0 -38 -24 -65t-60 -27q-40 0 -71 24.5t-31 61.5z" />
<glyph unicode="&#x152;" horiz-adv-x="1599" d="M53 596q0 118 37 230.5t102.5 200t164 141t212.5 53.5q99 0 185 -39h594q65 0 105 -60.5t40 -138.5q0 -90 -49 -90q-17 0 -29.5 10.5t-32 40.5t-26.5 39q-55 74 -142 74h-127q-31 0 -57 -19t-26 -47v-291h196q18 0 33 9.5t23 19.5t18 27q26 51 59 51q19 0 31 -12t12 -31 v-256q0 -19 -12 -31t-31 -12q-33 0 -59 51q-15 26 -31.5 40.5t-42.5 14.5h-196v-340q0 -56 30 -80t94 -24h138q33 0 71.5 19.5t67 43t56.5 43t42 19.5q19 0 33 -11.5t14 -29.5q0 -49 -57.5 -130t-91.5 -81h-672q-79 -29 -160 -29q-114 0 -212.5 53.5t-164 141t-102.5 200 t-37 230.5zM295 596q0 -72 7 -137t26 -132t49 -115.5t79 -79t113 -30.5q118 0 201 86v816q-83 86 -201 86q-64 0 -113 -30.5t-79 -79t-49 -115.5t-26 -132t-7 -137z" />
<glyph unicode="&#x153;" horiz-adv-x="1501" d="M47 420q0 118 61 221.5t164.5 165t221.5 61.5q92 0 175.5 -44t143.5 -119q57 76 139 119.5t178 43.5q110 0 193.5 -61.5t83.5 -161.5q0 -75 -38.5 -134t-104 -96.5t-137 -59.5t-152.5 -33q36 -98 107 -152.5t171 -54.5q31 0 76 20.5t76 20.5q20 0 34.5 -10.5t14.5 -28.5 q0 -51 -93 -97.5t-187 -46.5q-114 0 -204 44.5t-149 123.5q-59 -79 -143.5 -124.5t-183.5 -45.5q-131 0 -234.5 62.5t-158 164.5t-54.5 222zM272 494q0 -58 6.5 -110t24 -104.5t45 -90.5t73.5 -61.5t105 -23.5q47 0 82 27.5t53 73t26.5 95t8.5 103.5q0 79 -28 154.5 t-80 126.5t-115 51q-89 0 -145 -72t-56 -169zM940 541q0 -51 6 -97q44 4 88 16.5t85.5 34.5t67 58.5t25.5 81.5q0 44 -28 76t-70 32q-76 0 -125 -60.5t-49 -141.5z" />
<glyph unicode="&#x178;" horiz-adv-x="1091" d="M31 1139q0 18 14 30.5t33 12.5h309q19 0 31 -12t12 -31q0 -24 -29.5 -49.5t-29.5 -40.5q0 -13 4.5 -29.5t8.5 -26.5l5 -10l186 -328l154 285q37 74 37 92q0 22 -34 54.5t-34 52.5q0 18 14 30.5t33 12.5h275q19 0 31 -12t12 -31q0 -17 -17.5 -34t-40 -30t-48.5 -34.5 t-39 -43.5l-267 -489v-332q0 -18 9.5 -33t19.5 -23t27 -18q51 -26 51 -59q0 -19 -12 -31t-31 -12h-336q-19 0 -31 12t-12 31q0 33 51 59q26 15 40.5 31.5t14.5 42.5v322l-305 522q-24 41 -55 59q-51 26 -51 60zM289 1380q0 37 29 61.5t69 24.5q36 0 62 -22.5t26 -57.5 q0 -38 -24 -65t-60 -27q-40 0 -71 24.5t-31 61.5zM635 1382q0 37 29 61.5t69 24.5q36 0 62 -22.5t26 -56.5q0 -38 -24 -65.5t-60 -27.5q-40 0 -71 24.5t-31 61.5z" />
<glyph unicode="&#x2c6;" horiz-adv-x="487" d="M43 913q0 9 4 17l113 180q10 14 24 14h117q15 0 25 -14l112 -180q4 -8 4 -17q0 -12 -9 -21t-21 -9h-58q-16 0 -26 14l-90 150l-93 -150q-11 -14 -26 -14h-45q-12 0 -21.5 9t-9.5 21z" />
<glyph unicode="&#x2dc;" horiz-adv-x="659" d="M94 868q0 23 51 63t99 40q41 0 100 -30t100 -30q19 0 48.5 16.5t42.5 16.5t21.5 -9.5t8.5 -23.5q0 -37 -37 -74.5t-82 -37.5q-42 0 -105 30.5t-91 30.5q-22 0 -53 -17.5t-47 -17.5q-22 0 -39 12t-17 31z" />
<glyph unicode="&#x2000;" horiz-adv-x="781" />
<glyph unicode="&#x2001;" horiz-adv-x="1563" />
<glyph unicode="&#x2002;" horiz-adv-x="781" />
<glyph unicode="&#x2003;" horiz-adv-x="1563" />
<glyph unicode="&#x2004;" horiz-adv-x="521" />
<glyph unicode="&#x2005;" horiz-adv-x="390" />
<glyph unicode="&#x2006;" horiz-adv-x="260" />
<glyph unicode="&#x2007;" horiz-adv-x="260" />
<glyph unicode="&#x2008;" horiz-adv-x="195" />
<glyph unicode="&#x2009;" horiz-adv-x="312" />
<glyph unicode="&#x200a;" horiz-adv-x="86" />
<glyph unicode="&#x2010;" horiz-adv-x="733" d="M66 375q0 25 17 42t42 17h481q25 0 42.5 -17t17.5 -42t-17.5 -42.5t-42.5 -17.5h-481q-25 0 -42 17.5t-17 42.5z" />
<glyph unicode="&#x2011;" horiz-adv-x="733" d="M66 375q0 25 17 42t42 17h481q25 0 42.5 -17t17.5 -42t-17.5 -42.5t-42.5 -17.5h-481q-25 0 -42 17.5t-17 42.5z" />
<glyph unicode="&#x2012;" horiz-adv-x="733" d="M66 375q0 25 17 42t42 17h481q25 0 42.5 -17t17.5 -42t-17.5 -42.5t-42.5 -17.5h-481q-25 0 -42 17.5t-17 42.5z" />
<glyph unicode="&#x2013;" horiz-adv-x="1157" d="M66 375q0 25 29 42t72 17h821q42 0 72 -17t30 -42t-30 -42.5t-72 -17.5h-821q-43 0 -72 17.5t-29 42.5z" />
<glyph unicode="&#x2014;" horiz-adv-x="2181" d="M66 375q0 25 58 42t143 17h1642q86 0 145.5 -17t59.5 -42t-59.5 -42.5t-145.5 -17.5h-1642q-85 0 -143 17.5t-58 42.5z" />
<glyph unicode="&#x2018;" horiz-adv-x="364" d="M35 872q0 79 41 162t99 135t108 52q18 0 30.5 -14t12.5 -33q0 -17 -18 -36.5t-39.5 -35.5t-39.5 -41t-18 -51q0 -41 24.5 -103t24.5 -90q0 -43 -29 -73.5t-71 -30.5q-57 0 -91 47.5t-34 111.5z" />
<glyph unicode="&#x2019;" horiz-adv-x="366" d="M39 760q0 17 18 36.5t39.5 35.5t39.5 41t18 51q0 41 -25 102.5t-25 89.5q0 43 29.5 74t71.5 31q57 0 91 -48t34 -112q0 -79 -41 -162t-99 -134.5t-108 -51.5q-18 0 -30.5 14t-12.5 33z" />
<glyph unicode="&#x201c;" horiz-adv-x="690" d="M35 872q0 79 41 162t99 135t108 52q18 0 30.5 -14t12.5 -33q0 -17 -18 -36.5t-39.5 -35.5t-39.5 -41t-18 -51q0 -41 24.5 -103t24.5 -90q0 -43 -29 -73.5t-71 -30.5q-57 0 -91 47.5t-34 111.5zM356 872q0 79 41 162t99 135t108 52q18 0 30.5 -14t12.5 -33 q0 -17 -18 -36.5t-39.5 -35.5t-39.5 -41t-18 -51q0 -41 25 -103t25 -90q0 -43 -29.5 -73.5t-71.5 -30.5q-57 0 -91 47.5t-34 111.5z" />
<glyph unicode="&#x201d;" horiz-adv-x="690" d="M35 760q0 17 18 36.5t39.5 35.5t39.5 41t18 51q0 41 -25 102.5t-25 89.5q0 43 29.5 74t71.5 31q57 0 91 -48t34 -112q0 -79 -41 -162t-99 -134.5t-108 -51.5q-18 0 -30.5 14t-12.5 33zM356 760q0 17 18 36.5t39.5 35.5t39.5 41t18 51q0 41 -24.5 102.5t-24.5 89.5 q0 43 29 74t71 31q57 0 91 -48t34 -112q0 -79 -41 -162t-99 -134.5t-108 -51.5q-18 0 -30.5 14t-12.5 33z" />
<glyph unicode="&#x202f;" horiz-adv-x="312" />
<glyph unicode="&#x2039;" horiz-adv-x="432" d="M18 504q0 24 30.5 67.5t86 110.5t82.5 106q16 26 64 29h47q4 -3 13 -5.5t14 -6t5 -10.5q0 -20 -87 -132t-87 -141q0 -26 29 -76t63.5 -96t63.5 -89t29 -56q0 -29 -45 -29h-68q-25 0 -41 14q-27 43 -82.5 117t-86 122.5t-30.5 74.5z" />
<glyph unicode="&#x203a;" horiz-adv-x="430" d="M57 205q0 13 29 56t63.5 89t63.5 96t29 76q0 29 -87 141t-87 132q0 7 5 10.5t14 6t13 5.5h47q48 -3 64 -29q27 -39 82.5 -106t86 -110.5t30.5 -67.5q0 -26 -30.5 -74.5t-86 -122.5t-82.5 -117q-16 -14 -41 -14h-68q-45 0 -45 29z" />
<glyph unicode="&#x205f;" horiz-adv-x="390" />
<glyph unicode="&#x20ac;" horiz-adv-x="1069" d="M25 508q0 26 17.5 43.5t43.5 17.5h84q0 43 6 86h-88q-26 0 -43.5 18t-17.5 44t17.5 43.5t43.5 17.5h113q54 192 189 316.5t321 124.5q119 0 211 -62t92 -166l2 -2q0 -41 -31.5 -68.5t-75.5 -27.5q-93 0 -116 106q-24 105 -111 105q-88 0 -152 -93.5t-94 -234.5h328 q26 0 43.5 -17.5t17.5 -43.5t-17.5 -44t-43.5 -18h-346q-4 -54 -4 -78v-6h350q26 0 43.5 -17.5t17.5 -43.5t-17.5 -44t-43.5 -18h-340q11 -68 34 -124.5t59.5 -103t91.5 -73t124 -26.5q46 0 108 17.5t70 17.5q27 0 48.5 -14t21.5 -36q0 -39 -50 -71t-119.5 -48t-137.5 -16 q-194 0 -327.5 134.5t-166.5 342.5h-94q-26 0 -43.5 18t-17.5 44z" />
<glyph unicode="&#xe000;" horiz-adv-x="860" d="M0 0v860h860v-860h-860z" />
</font>
</defs>
</svg>
